<?xml version="1.0" encoding="UTF-8" standalone="no"?>
<!DOCTYPE svg PUBLIC "-//W3C//DTD SVG 1.1//EN" "http://www.w3.org/Graphics/SVG/1.1/DTD/svg11.dtd">
<svg width="100%" height="100%" viewBox="0 0 5906 5906" version="1.1" xmlns="http://www.w3.org/2000/svg" xmlns:xlink="http://www.w3.org/1999/xlink" xml:space="preserve" xmlns:serif="http://www.serif.com/" style="fill-rule:evenodd;clip-rule:evenodd;stroke-linecap:round;stroke-linejoin:round;stroke-miterlimit:1.5;">
    <g id="Ebene1">
        <path id="_1-col-3" serif:id="1-col-3" d="M1779.89,2073.21L1776.05,2068.49L1758.89,2042.21L1746.15,2017.35L1731.99,1985.05L1721.41,1955.76L1713.01,1930.09L1704.39,1901.05L1697.72,1874.7L1687.71,1823.45L1684.8,1792.51L1685.03,1775.67L1686.55,1764.27L1707.81,1773.22L1724.49,1782.21L1737.97,1793.13L1753.05,1805.88L1766.03,1821.05L1775.53,1834.67L1791.81,1797.86L1809.41,1762.08L1829.29,1720.47L1844.02,1693.91L1849.22,1690.61L1856.35,1690.49L1863.96,1693.36L1891.43,1710.17L1906.58,1723.73L1922.79,1742.29L1936.49,1762.9L1946.03,1779.37L1953.07,1796.66L1960.6,1816.59L1964.8,1835.55L1970.66,1819.36L1977.8,1801.74L1985.45,1783.87L1992.57,1766.87L2002.65,1744.73L2011.88,1727.73L2022.47,1710.19L2031.68,1694.65L2043.54,1678.84L2057.2,1663.37L2070.95,1649.04L2085.99,1637.47L2090.18,1636.48L2094.43,1636.83L2098.2,1640.67L2100.74,1645.48L2110.18,1671.61L2123.83,1718.65L2130.12,1744.78L2140.12,1795.88L2146.1,1840.94L2148.53,1880.94L2146.94,1879.13L2116.92,1848.81L2100.98,1835.47L2086.84,1824.23L2084.85,1841.22L2083.53,1862.37L2080.37,1906.94L2076.43,1954.41L2072.45,2013.27L2071.87,2024.53L2068.05,2028.9L2048.6,2052.71L2027.4,2080.95L2005.99,2109.57L1996.67,2120.09L1987.93,2109.91L1979.71,2098.18L1961.35,2070.81L1942.28,2042.49L1929.85,2022.42L1919.57,2005.07L1914.95,2013.57L1909.17,2026.62L1897.75,2052.82L1886.56,2080.63L1872.8,2113.1L1865.87,2127.67L1860.26,2119.11L1842.39,2092.74L1816.47,2055.84L1803.24,2037.9L1790.33,2019.16L1777.66,2001.61L1777.01,2022.74L1779.15,2062.57L1779.89,2073.21Z" style="fill:rgb(128,128,128);stroke:rgb(20,12,17);stroke-width:1.25px;"/>
        <path id="_8-col-4" serif:id="8-col-4" d="M3385.61,1855.02L3383.1,1834.74L3380.37,1798.13L3379.02,1765.21L3378.51,1725.41L3379.22,1681.24L3380.92,1644.25L3382.51,1623.08L3384.32,1606.65L3386.1,1596.57L3387.98,1592.59L3391.83,1595.8L3400.64,1605.6L3420.17,1628.91L3442.45,1656L3463.85,1681.77L3478.87,1699.15L3486.58,1707.3L3491.07,1710.69L3495.54,1706.26L3506.83,1690.11L3526.75,1659.17L3545.32,1629.98L3555.86,1613.85L3562.84,1603.91L3566.98,1599.81L3572.31,1606.44L3581.76,1622.74L3596.36,1650.33L3605.46,1668.19L3620.38,1698.14L3626.18,1709.94L3629.68,1717.12L3635.43,1703.99L3653.46,1671.36L3664.26,1655.75L3675.55,1641.52L3685.38,1630.53L3696.04,1619.82L3702.37,1613.98L3703.64,1621.59L3705.7,1642.83L3706.2,1662.72L3704.51,1699.72L3700.87,1734.69L3693.09,1777.33L3688.4,1798.13L3682.22,1821.55L3674.91,1844.95L3664.11,1872.9L3653.51,1894.16L3640.34,1915.23L3624.74,1935.37L3606.06,1954.69L3583.92,1972.49L3573.63,1979.19L3560.46,1986.47L3546.9,1992.54L3531.48,1997.79L3516.27,2001.31L3516.15,2001.33L3511.69,1985.13L3503.06,1957.66L3491.61,1922.93L3476.45,1884.42L3456.07,1841.56L3444.99,1821.62L3437.21,1808.77L3422.69,1820.68L3398.54,1842.09L3385.61,1855.02Z" style="fill:rgb(89,89,89);stroke:rgb(20,12,17);stroke-width:1.25px;"/>
        <path id="_6-col-3" serif:id="6-col-3" d="M3082.12,2054.78L3075.77,2049.64L3058.45,2031.58L3044.15,2011.59L3028.47,1986.37L3013.03,1956.64L3000.52,1928.02L2985.37,1891.98L2971.71,1854.29L2960.68,1823.7L2952.75,1798.1L2945.55,1774.68L2939.4,1751.89L2934.37,1731.92L2929.02,1707.73L2952.33,1736.36L2974.21,1763.4L2997.76,1791.26L3013.39,1808.77L3028.47,1822.99L3041.8,1801.88L3051.27,1783.83L3059.59,1764.08L3069.13,1740.3L3076.34,1722.45L3081.79,1707.24L3095.31,1729.64L3110.81,1754.59L3125.71,1776.29L3132.89,1785.6L3137.31,1790.73L3148.15,1780.91L3171.8,1756.82L3192.99,1734.16L3218.12,1708.3L3245.92,1683.63L3256.41,1674.83L3265.7,1668.19L3265.11,1689.49L3262.03,1737.42L3258.97,1783.08L3256.33,1811.75L3248.83,1868.05L3244.89,1888.97L3244.1,1887.83L3224.42,1860.99L3215.55,1850.88L3207.34,1842.24L3198.79,1835.58L3190.8,1830.76L3183.81,1828.29L3179.48,1840.19L3174.54,1854.27L3169.06,1871.02L3162.35,1893.47L3156.29,1916.18L3150.88,1939.15L3145.61,1965.25L3142.06,1986.17L3138.96,2009.12L3136.36,2011.09L3100.23,2040.2L3082.12,2054.78Z" style="fill:rgb(128,128,128);stroke:rgb(20,12,17);stroke-width:1.25px;"/>
        <path id="_2-col-6" serif:id="2-col-6" d="M1870.93,2351.82L1861.26,2338.04L1848.27,2315.84L1836.91,2291.57L1827.02,2269.99L1819.31,2249.3L1806.64,2211.33L1795.22,2170.62L1786.77,2128.21L1783.46,2106.23L1780.72,2085.1L1779.15,2062.57L1777.01,2022.74L1777.66,2001.61L1790.33,2019.16L1803.24,2037.9L1816.47,2055.84L1842.39,2092.74L1860.26,2119.11L1865.87,2127.67L1872.8,2113.1L1886.56,2080.63L1897.75,2052.82L1909.17,2026.62L1914.95,2013.57L1919.57,2005.07L1929.85,2022.42L1942.28,2042.49L1961.35,2070.81L1979.71,2098.18L1987.93,2109.91L1996.67,2120.09L2005.99,2109.57L2027.4,2080.95L2048.6,2052.71L2068.05,2028.9L2078.63,2016.77L2090.1,2004.67L2100.01,1996.94L2104.25,1995.5L2105.54,2028.48L2106.55,2074.17L2105.92,2099.8L2104.46,2147.15L2103.44,2167.91L2101.09,2198.14L2099.36,2223.01L2096.29,2250.58L2092.57,2276.66L2085.93,2305.28L2081.59,2320.35L2072.26,2345.37L2062.54,2363L2052.13,2375.58L2042.19,2387.07L2023.44,2401.59L2009.42,2408.53L1986.13,2413.62L1988.77,2404.25L1997.79,2364.98L2001.39,2342.68L2002.58,2332.06L2002.58,2320.98L2000.99,2312.93L1997.87,2308.15L1991.05,2303.69L1983.81,2301.64L1974.56,2300.9L1961.11,2301.65L1944.35,2304.72L1920.67,2313.22L1902.93,2323.16L1885.84,2336.27L1872.89,2349.31L1870.93,2351.82Z" style="stroke:rgb(20,12,17);stroke-width:1.25px;"/>
        <path id="_4-col-2" serif:id="4-col-2" d="M2700.5,2159.51L2697.7,2159.66L2672.76,2157.71L2639.99,2148.82L2610.37,2135.36L2581.6,2115.45L2558.87,2094.93L2541.53,2073.17L2525.12,2048.23L2512.8,2025.78L2500.65,1997.04L2491.31,1966.64L2475.05,1905.86L2467.3,1866.87L2462.5,1830.93L2453.96,1766.75L2449.92,1721.77L2446.3,1686.81L2442.57,1651.03L2438.14,1604.16L2454.88,1635.33L2469.07,1659.85L2483.16,1682.14L2499.32,1708.62L2522.12,1750.67L2527.9,1723.75L2532.64,1702.51L2538.62,1680.4L2545.03,1658.37L2554.38,1630L2563.98,1604.06L2571.39,1585.48L2595.78,1614.01L2637.81,1658.02L2663.09,1684.18L2686.16,1707.69L2708.04,1728.1L2739.2,1756.46L2759.7,1735.02L2779.44,1715.44L2797.63,1694.76L2833.33,1653.67L2869.98,1608.09L2881.66,1591.62L2886.81,1582.33L2886.03,1605.95L2884.78,1633.14L2883.47,1681.96L2881.69,1740.83L2878.59,1792L2876.06,1853.27L2873.87,1895.87L2871.48,1928.67L2867.89,1958.88L2863.52,1980.41L2857.72,1966.61L2845.9,1941.54L2822.86,1895.78L2800.09,1855.07L2785.75,1831.82L2775.32,1814.85L2763.73,1796.83L2759.12,1822.55L2751.43,1873.68L2744.57,1925.43L2739.9,1975.86L2736.35,2022.44L2734.45,2069.17L2734.05,2105.18L2734.21,2114.35L2724.12,2126.44L2710.96,2143.91L2700.5,2159.51Z" style="fill:rgb(191,191,191);stroke:rgb(20,12,17);stroke-width:1.25px;"/>
        <path id="_3-col-1" serif:id="3-col-1" d="M2071.87,2024.53L2072.45,2013.27L2076.43,1954.41L2080.37,1906.94L2083.53,1862.37L2084.85,1841.22L2086.84,1824.23L2100.98,1835.47L2116.92,1848.81L2146.94,1879.13L2160.24,1894.17L2176.19,1915.24L2192.7,1940.43L2206.78,1964.67L2215.8,1983.47L2225.21,2004.99L2231.64,2023.97L2237.25,2042.2L2241.03,2058.85L2241.33,2031.05L2244.54,1987.49L2248.05,1966.21L2251.94,1944.01L2258.2,1921.17L2265.79,1896.27L2274.33,1872.57L2283.76,1850.83L2292.33,1831.37L2299.28,1817.38L2305.71,1806.62L2327.93,1836.95L2350.16,1869.93L2379.02,1912.86L2396.93,1941.17L2411.64,1970.04L2426.25,1998.12L2436.95,2023.78L2447.49,2052.99L2455.7,2085.3L2461.19,2114.57L2463.93,2152.94L2463.65,2183.82L2460.14,2211.31L2457.78,2222.7L2456.81,2221.76L2443.5,2210.15L2428.43,2198.16L2414.62,2188.08L2401.32,2179.06L2390.17,2171.98L2391.12,2200.8L2392.88,2226.85L2395.2,2251.54L2397.66,2272.3L2401.44,2298.54L2405.11,2319.82L2406.52,2326.79L2390.24,2343.13L2372.7,2355.64L2353.66,2363.19L2337.46,2368.13L2321.06,2370.62L2300.78,2369.99L2281.37,2367.24L2260.69,2361.41L2238.28,2352.98L2218.01,2344.17L2196.84,2331.45L2170.82,2315L2150.49,2297.68L2131.47,2279.44L2114.18,2258L2100.74,2232.46L2098.81,2227.94L2099.36,2223.01L2101.09,2198.14L2103.44,2167.91L2104.46,2147.15L2105.92,2099.8L2106.55,2074.17L2105.54,2028.48L2104.25,1995.5L2100.01,1996.94L2090.1,2004.67L2078.63,2016.77L2071.87,2024.53Z" style="fill:rgb(242,242,242);stroke:rgb(20,12,17);stroke-width:1.25px;"/>
        <path id="_5-col-4" serif:id="5-col-4" d="M2734.21,2114.35L2734.05,2105.18L2734.45,2069.17L2736.35,2022.44L2739.9,1975.86L2744.57,1925.43L2751.43,1873.68L2759.12,1822.55L2763.73,1796.83L2775.32,1814.85L2785.75,1831.82L2800.09,1855.07L2822.86,1895.78L2845.9,1941.54L2857.72,1966.61L2868.03,1991.14L2878.12,2013.68L2892.62,2050.34L2900.74,2074.39L2909.87,2051.79L2928.99,2013.35L2940.18,1990.26L2953.24,1967.64L2964.65,1950.54L2972.78,1938.43L2983.7,1921.59L2986.22,1946.7L2992.26,2001.85L2996.99,2045.74L3002.23,2089.03L3004.83,2115.64L3022.16,2103.04L3040.19,2087.96L3061.74,2071.59L3079.64,2056.78L3100.23,2040.2L3136.36,2011.09L3169.49,1986.03L3183.13,1975.51L3193.55,1968.97L3188.83,1993.77L3179.09,2045.78L3170.17,2089.4L3160.28,2134.79L3147.59,2185.92L3138.97,2217.5L3129.59,2246.25L3119.89,2273.77L3110.72,2296.94L3101.26,2319.12L3088.22,2346.58L3078.66,2363.02L3079.52,2352.86L3081.72,2317.08L3083.4,2280.04L3084.49,2247.3L3085.24,2216.37L3085.68,2186.9L3073.42,2209.68L3060.97,2233.78L3048.8,2258.55L3037.35,2283.25L3024.33,2313.63L3013.67,2341L3003.14,2371.27L2994.31,2400.6L2986.49,2431.66L2984.16,2443.16L2974.35,2445.42L2952.75,2445.37L2933.97,2442.79L2913.52,2437.25L2893.56,2428.81L2865.68,2413.49L2837.99,2388.68L2817.98,2368.69L2800.21,2348.18L2784.51,2324.76L2785.23,2313.35L2785.32,2290.75L2783.88,2264.66L2781.24,2241.76L2776.4,2214.84L2770.49,2191.02L2763.47,2168.72L2754.17,2144.69L2746.76,2128.43L2737.42,2110.49L2734.21,2114.35Z" style="fill:rgb(91,90,89);stroke:rgb(20,12,17);stroke-width:1.25px;"/>
        <path id="_7-col-6" serif:id="7-col-6" d="M3138.96,2009.12L3142.06,1986.17L3145.61,1965.25L3150.88,1939.15L3156.29,1916.18L3162.35,1893.47L3169.06,1871.02L3174.54,1854.27L3179.48,1840.19L3183.81,1828.29L3190.8,1830.76L3198.79,1835.58L3207.34,1842.24L3215.55,1850.88L3224.42,1860.99L3244.1,1887.83L3263.22,1915.67L3271.53,1928.95L3285.25,1953.51L3297.5,1977.13L3301.38,1985.88L3307.31,1974.43L3320.78,1947.88L3337.52,1918.62L3348.49,1900.39L3371.04,1871.02L3382.71,1857.92L3398.54,1842.09L3422.69,1820.68L3437.21,1808.77L3444.99,1821.62L3456.07,1841.56L3476.45,1884.42L3491.61,1922.93L3503.06,1957.66L3511.69,1985.13L3522.73,2025.22L3527.62,2044.13L3537.49,2083.67L3542.85,2106.2L3550.28,2141.21L3554.26,2163.84L3557.23,2185.01L3560.31,2225L3560.17,2241.31L3554.41,2227.98L3547.45,2212.41L3538.23,2192.39L3527.13,2169.15L3515.95,2146.61L3502.8,2121.12L3491.68,2100.37L3479.65,2078.65L3468.51,2059.16L3461.56,2087.67L3456.64,2110.49L3452.84,2130.28L3449.05,2152.54L3445.25,2178.85L3442.05,2206.2L3439.74,2232.07L3437.85,2263.24L3437.05,2287.68L3436.98,2324.2L3437.87,2352.86L3439.84,2384.64L3442.55,2413.79L3444.01,2424.82L3430.01,2427.56L3405.1,2429.17L3384.41,2428.17L3360.88,2424.74L3339.66,2419.45L3342.8,2388.48L3344.89,2360.13L3346.09,2336.66L3347.03,2308.33L3347.03,2278.85L3346.54,2257.34L3339.67,2261.18L3330.78,2270.54L3315.95,2289.93L3302.96,2308.79L3288.81,2330.5L3274.79,2352.86L3259.22,2378.43L3250.09,2371.5L3233.86,2357.2L3221.98,2345L3221.84,2328.64L3221.56,2297.67L3221.26,2262.95L3220.97,2229.42L3199.53,2253.47L3175.68,2281.26L3167,2264.56L3158.26,2244.38L3150.12,2220.85L3144.27,2198.1L3147.59,2185.92 3147.59,2185.92L3160.28,2134.79L3170.17,2089.4L3179.09,2045.78L3188.83,1993.77L3193.55,1968.97L3183.13,1975.51L3169.49,1986.03L3138.96,2009.12Z" style="stroke:rgb(20,12,17);stroke-width:1.25px;"/>
        <path id="_9-col-3" serif:id="9-col-3" d="M3792.99,2167.99L3775,2149.23L3759.87,2127.23L3744.18,2095.92L3734.52,2068.74L3727.79,2042.36L3722.74,2012.41L3720.81,1977.97L3722.1,1949.09L3724.98,1914.78L3727.76,1888.27L3731.5,1856.42L3736.17,1819.44L3741.57,1777.87L3746.28,1739.65L3748.58,1711.9L3766.68,1727.91L3782.48,1743.69L3803.75,1768.11L3824.72,1796.83L3842.09,1825.57L3855.37,1852.19L3861.24,1865.84L3867.31,1881.76L3872.24,1865L3883.05,1833.95L3893.51,1808.77L3910.61,1774L3928.68,1743.1L3946.13,1717.26L3959.69,1699.28L3971.02,1685.42L3980.36,1702.26L3992.12,1725.78L4006.21,1758.42L4019.73,1796.83L4026.76,1821.32L4034.91,1856.99L4039.28,1882.52L4042.95,1913.13L4045.33,1949.09L4044.84,1988.25L4042.09,2024.56L4037.54,2057.11L4029.28,2094.86L4015.58,2132.9L3995.69,2166.14L3979.71,2183.35L3977.49,2184.91L3974.8,2181.42L3947.99,2146.69L3915.32,2104.39L3888.92,2070.19L3861.07,2034.12L3865.57,2059.16L3873.85,2105.25L3880.45,2142.02L3887.1,2179.03L3892.2,2207.22L3893.06,2211.83L3869.37,2209.36L3840.99,2200.35L3820.29,2189.82L3819.83,2189.49L3820.65,2170.61L3821.7,2153.55L3821.57,2130.4L3821.7,2107.51L3816.49,2121.12L3807.93,2140.21L3797.87,2159.6L3792.99,2167.99Z" style="fill:rgb(128,128,128);stroke:rgb(20,12,17);stroke-width:1.25px;"/>
        <path id="_10-col-4" serif:id="10-col-4" d="M1831.22,2694.84L1819.93,2700.24L1794.02,2707.35L1775.2,2708.76L1757.24,2706.89L1743.21,2702.95L1726,2694.64L1707.19,2679.88L1689.04,2657.31L1677.26,2635.52L1666.35,2605.94L1659.29,2576.1L1655.34,2548.01L1653.08,2520.48L1652.05,2492.66L1652.23,2465.67L1653.85,2434.93L1656.96,2404.27L1662.26,2369.91L1668.86,2338.28L1676.91,2307.58L1683.05,2290.07L1690.4,2276.27L1698.95,2266.33L1710.58,2259.13L1724.17,2256.56L1739.5,2259.48L1756.41,2268.95L1769.28,2280.37L1787.96,2304.31L1805.89,2334.42L1818.76,2362.1L1827.28,2385.47L1832.75,2404.47L1838.53,2432.19L1840.35,2415.29L1845.09,2396.97L1853.64,2377.17L1862.71,2362.3L1872.89,2349.31L1885.84,2336.27L1902.93,2323.16L1920.67,2313.22L1944.35,2304.72L1961.11,2301.65L1974.56,2300.9L1983.81,2301.64L1991.05,2303.69L1997.87,2308.15L2000.99,2312.93L2002.58,2320.98L2002.58,2332.06L2001.39,2342.68L1997.79,2364.98L1988.77,2404.25L1978.94,2439.19L1970.22,2466.14L1961.05,2491.91L1951.39,2517.15L1941.64,2541.44L1930.26,2568.93L1921.72,2588.3L1916.49,2596.34L1905.5,2582.97L1894.3,2571.25L1881.26,2559.46L1866.08,2547.78L1849.66,2537.19L1831.22,2527.44L1815.92,2520.87L1803.36,2516.43L1793.33,2513.47L1796.08,2528.55L1798.93,2543.84L1802.05,2560.15L1805.52,2577.97L1808.81,2594.5L1812.31,2611.6L1816.5,2631.53L1820.9,2651.66L1827.32,2679.35L1831.22,2694.84Z" style="fill:rgb(91,90,89);stroke:rgb(20,12,17);stroke-width:1.25px;"/>
        <path id="_12-col-5" serif:id="12-col-5" d="M2627.13,2593.63L2613.51,2595.22L2599.42,2594.13L2582.15,2590.03L2567.04,2584.22L2554.91,2578.22L2532.01,2564.17L2511.47,2548.66L2495.19,2532.85L2479.72,2514.16L2469.48,2499.4L2457.13,2478.53L2446.8,2457.89L2438.01,2437.51L2428.39,2411.34L2420.64,2386.42L2415.19,2366.18L2410.3,2345.46L2405.11,2319.82L2401.44,2298.54L2397.66,2272.3L2395.2,2251.54L2392.88,2226.85L2391.12,2200.8L2390.17,2171.98L2401.32,2179.06L2414.62,2188.08L2428.43,2198.16L2443.5,2210.15L2456.81,2221.76L2469.35,2233.84L2483.72,2249.51L2496.17,2265.42L2506.72,2281.77L2507.68,2264.56L2509.7,2248.26L2512.66,2231.72L2516.51,2214.49L2520.72,2198.34L2525.26,2182.52L2531.04,2163.8L2537.12,2144.96L2569.24,2186.19L2584.73,2206.06L2597.79,2222.83L2610.71,2239.41L2624.07,2256.56L2636.38,2272.37L2648.33,2250.99L2660.22,2229.1L2671.14,2208.95L2681.24,2190.85L2695.57,2166.89L2710.96,2143.91L2724.12,2126.44L2737.42,2110.49L2746.76,2128.43L2754.17,2144.69L2763.47,2168.72L2770.49,2191.02L2776.4,2214.84L2781.24,2241.76L2783.88,2264.66L2785.32,2290.75L2785.23,2313.35L2783.64,2338.77L2780.59,2363.41L2775.83,2388.84L2770.53,2410.15L2764.39,2430.19L2758.08,2447.63L2749.68,2467.59L2740.17,2487.01L2729.8,2505.47L2715.21,2527.87L2707.28,2538.55L2706.7,2534.51L2703.49,2510.94L2700.18,2485.4L2697.39,2462.99L2694.31,2437.27L2691.44,2412.39L2688.18,2383.04L2686.18,2364.37L2684.67,2349.74L2678.78,2367.72L2674.57,2381.11L2668.64,2400.82L2662.2,2423.55L2656.29,2445.87L2650.59,2469L2644.37,2496.46L2638.25,2526.51L2633.92,2550.16L2630.02,2573.92L2627.13,2593.63Z" style="fill:rgb(53,51,51);stroke:rgb(20,12,17);stroke-width:1.25px;"/>
        <path id="_13-col-1" serif:id="13-col-1" d="M3177.87,2830.99L3168.48,2835.43L3150.48,2840.04L3133.84,2839.78L3112.88,2835.59L3089.51,2824.83L3069.47,2810.23L3046.09,2785.99L3026.74,2758.24L3009.58,2726.06L2996.95,2695.42L2986.48,2661.41L2979.68,2630.17L2976.5,2609.31L2973.87,2582.39L2972.79,2553.93L2972.78,2530.4L2974.8,2505.02L2977.59,2480.39L2981.18,2457.86L2986.49,2431.66L2994.31,2400.6L3003.14,2371.27L3013.67,2341L3024.33,2313.63L3037.35,2283.25L3048.8,2258.55L3060.97,2233.78L3073.42,2209.68L3085.68,2186.9L3085.24,2216.37L3084.49,2247.3L3083.4,2280.04L3081.72,2317.08L3079.52,2352.86L3076.52,2388.12L3073.6,2412.88L3087.01,2394.23L3100.49,2375.93L3117.95,2352.86L3139.23,2325.64L3159.9,2300.11L3179.82,2276.31L3199.53,2253.47L3220.97,2229.42L3221.26,2262.95L3221.56,2297.67L3221.84,2328.64L3222.1,2358.91L3222.35,2387.38L3222.82,2440.47L3233.25,2422.38L3250.07,2393.72L3262.2,2373.46L3274.79,2352.86L3288.81,2330.5L3302.96,2308.79L3315.95,2289.93L3330.78,2270.54L3339.67,2261.18L3346.54,2257.34L3347.03,2278.85L3347.03,2308.33L3346.09,2336.66L3344.89,2360.13L3342.8,2388.48L3340.04,2416.39L3336.45,2445.42L3332.02,2474.89L3327.99,2498.06L3322.06,2528.01L3314.43,2561.49L3305.68,2595.22L3293.22,2637.23L3285.27,2661.31L3282.2,2669.9L3275.62,2662.04L3264.02,2648.36L3249.07,2631.2L3236.27,2617.08L3224.42,2604.57L3210.24,2590.3L3194.55,2575.3L3184.96,2566.47L3174.11,2556.72L3171.28,2581.95L3169.09,2605.16L3167.08,2632.15L3165.86,2655.73L3165.17,2679.42L3165.07,2700.96L3165.48,2721.73L3166.26,2739.44L3168.22,2765.94L3171.33,2793.18L3175.02,2816.81L3177.87,2830.99Z" style="fill:rgb(242,242,242);stroke:rgb(20,12,17);stroke-width:1.25px;"/>
        <path id="_15-col-5" serif:id="15-col-5" d="M3941.59,2398.93L3933.68,2377.68L3922.97,2344.18L3915.9,2318.57L3908.83,2289.6L3902.59,2260.96L3897.21,2233.99L3892.2,2207.22L3887.1,2179.03L3880.45,2142.02L3873.85,2105.25L3865.57,2059.16L3861.07,2034.12L3888.92,2070.19L3915.32,2104.39L3947.99,2146.69L3974.8,2181.42L4001.94,2216.57L4011.02,2193.97L4017.47,2179L4025.54,2161.39L4036.8,2138.51L4051.63,2110.88L4064.31,2089.13L4076.91,2068.95L4096.17,2040.47L4103.08,2059.16L4116.99,2096.81L4130.17,2132.47L4141.79,2163.92L4162.21,2219.19L4172.04,2200.19L4184.45,2176.41L4203.23,2140.86L4220.84,2108.11L4236.26,2080.22L4248.57,2059.16L4256.11,2048.58L4257.43,2059.16L4255.89,2087.73L4253.4,2119.9L4251.57,2140.69L4249.15,2166.22L4245.66,2200.13L4241.23,2239.49L4237.49,2269.74L4233.7,2297.7L4229.05,2328.11L4223.99,2356.27L4218.18,2384.28L4212.91,2406.05L4207.08,2426.72L4200.05,2447.96L4193.02,2466.08L4185.44,2483L4177.2,2498.9L4168.21,2513.47L4156.09,2529.16L4142.7,2542.18L4129.87,2551.12L4109.58,2559.28L4092.84,2561.29L4069.73,2557.83L4051.71,2550.37L4038.18,2542.06L4024.57,2530.95L4022.95,2523.07L4017.08,2499.08L4009.26,2470.54L3998.46,2434.83L3991.2,2412.22L3984.17,2390.94L3980.56,2380.17L3976.58,2372.19L3972.64,2369.36L3967.11,2371.75L3961.69,2376.18L3950.45,2387.93L3941.59,2398.93Z" style="fill:rgb(53,51,51);stroke:rgb(20,12,17);stroke-width:1.25px;"/>
        <path id="_14-col-2" serif:id="14-col-2" d="M3670.39,2548.79L3664.73,2553.04L3642.59,2565.32L3622.68,2572.13L3599.96,2576.58L3569.43,2577.97L3544.47,2575.21L3524.55,2569.98L3506.13,2561.76L3487.87,2547.73L3474.01,2530.37L3464.84,2513.47L3454.07,2482.98L3447.92,2454.38L3442.55,2413.79L3439.84,2384.64L3437.87,2352.86L3436.98,2324.2L3437.05,2287.68L3437.85,2263.24L3439.74,2232.07L3442.05,2206.2L3445.25,2178.85L3449.05,2152.54L3452.84,2130.28L3456.64,2110.49L3461.56,2087.67L3468.51,2059.16L3479.65,2078.65L3491.68,2100.37L3502.8,2121.12L3515.95,2146.61L3527.13,2169.15L3538.23,2192.39L3547.45,2212.41L3554.41,2227.98L3564.38,2251.05L3569.46,2237.09L3578.75,2214.37L3587.87,2194.7L3598.09,2174.94L3608.63,2156.54L3621.11,2136.81L3631.98,2121.12L3639.85,2110.49L3651.06,2096.31L3662.04,2083.38L3665.75,2093.15L3671.9,2110.49L3675.43,2121.12L3681.43,2140.27L3687.17,2159.71L3692.67,2178.92L3699.74,2203.6L3706,2224.69L3712.03,2243.75L3721.78,2271.58L3735.03,2253.74L3748.52,2235.37L3762.92,2215.1L3775.94,2195.81L3786.84,2178.57L3797.87,2159.6L3807.93,2140.21L3816.49,2121.12L3821.7,2107.51L3821.57,2130.4L3821.7,2153.55L3820.65,2170.61L3819.68,2193.02L3818.18,2217.57L3815.39,2249.83L3811.68,2280.69L3807.79,2305.64L3801.77,2335.87L3796.14,2358.51L3789.47,2380.82L3782.4,2400.75L3773.62,2421.74L3761.73,2445.42L3748.04,2467.99L3737.96,2482.17L3724.65,2465.47L3705.44,2448.38L3684.94,2435.12L3662.74,2424.98L3649.91,2420.8L3651.41,2441.98L3654.11,2467.25L3658.63,2496.07L3664.25,2524.18L3670.39,2548.79Z" style="fill:rgb(191,191,191);stroke:rgb(20,12,17);stroke-width:1.25px;"/>
        <path id="_16-col-3" serif:id="16-col-3" d="M1925.41,2873.24L1919.31,2867.32L1905.77,2852.02L1891.78,2833.67L1878.19,2812.77L1867.06,2792.76L1858.11,2774.2L1848.64,2751.37L1839.7,2725.5L1833.23,2702.83L1827.32,2679.35L1820.9,2651.66L1816.5,2631.53L1812.31,2611.6L1808.81,2594.5L1805.52,2577.97L1802.05,2560.15L1798.93,2543.84L1796.08,2528.55L1793.33,2513.47L1803.36,2516.43L1815.92,2520.87L1831.22,2527.44L1849.66,2537.19L1866.08,2547.78L1881.26,2559.46L1894.3,2571.25L1905.5,2582.97L1916.49,2596.34L1924.99,2583.26L1933.89,2570.52L1943.32,2557.93L1955.92,2542.36L1967.31,2529.38L1978.9,2517.09L2065.41,2622.24L2075.05,2613.99L2085.2,2606.76L2097.82,2598.74L2114.39,2589.16L2130.08,2580.79L2147.82,2572L2166.49,2563.49L2186.97,2555.2L2203.66,2549.79L2211.49,2548.28L2215.98,2548.48L2217.76,2551.51L2218.05,2557.36L2218.56,2573.01L2218.58,2596.68L2217.87,2617.22L2216.05,2642.66L2213.23,2667.8L2210.01,2689.24L2206.41,2708.76L2201.2,2732.31L2196.42,2750.86L2189.89,2773.01L2182.03,2795.82L2174.62,2814.06L2166.4,2831.26L2154.4,2851.94L2145.94,2864.04L2136.22,2875.96L2117.47,2894.11L2102.38,2905.11L2084.03,2915.17L2060.45,2923.48L2032.36,2927.01L2011.44,2924.93L1998.36,2920.9L1980.2,2892.01L1966.63,2871.96L1954.82,2854.93L1941.35,2835.81L1934.41,2851.47L1925.41,2873.24Z" style="fill:rgb(128,128,128);stroke:rgb(20,12,17);stroke-width:1.25px;"/>
        <path id="_11-col-2" serif:id="11-col-2" d="M2094.55,2600.82L2090.58,2586.15L2086.64,2564.17L2083.42,2533.15L2081.15,2502.56L2081.22,2482.66L2081.32,2452.95L2082.33,2422.88L2084.18,2393.64L2086.22,2371.75L2088.9,2352.86L2097.59,2360.55L2109.77,2372.66L2126.81,2392.79L2138.31,2409.2L2150.97,2431.15L2162.31,2456.65L2169.51,2478.61L2182.32,2456.82L2196.49,2432.7L2210.11,2409.52L2225.2,2383.83L2233.69,2369.38L2245.76,2386.08L2266.98,2415.44L2282.67,2437.14L2298.43,2458.96L2307.54,2471.55L2314.23,2457.06L2322.79,2440.53L2334.86,2420.04L2347.25,2401.61L2364.36,2379.42L2379.57,2362.18L2381.31,2379.65L2383.01,2400.95L2384.79,2434.75L2385.43,2466.74L2385.04,2498.78L2383.53,2532.53L2381.1,2564.17L2377.45,2597.42L2374.76,2617.08L2370.31,2644.36L2362.07,2678.99L2350.99,2708.76L2342.2,2725.26L2330.28,2741.73L2330.26,2741.75L2327.34,2720.24L2324.66,2698.62L2322.49,2679.68L2320.38,2659.88L2318.67,2642.62L2317.32,2627.76L2310.76,2656.16L2306.91,2673.49L2302.09,2696.25L2297.39,2720.24L2292.69,2747.24L2289.32,2769.84L2282.67,2772.32L2267.19,2775.48L2250.7,2775.48L2233.29,2772.69L2215.07,2767.14L2199.14,2759.76L2194.66,2756.82L2196.42,2750.86L2201.2,2732.31L2206.41,2708.76L2210.01,2689.24L2213.23,2667.8L2216.05,2642.66L2217.87,2617.22L2218.58,2596.68L2218.56,2573.01L2218.05,2557.36L2217.76,2551.51L2215.98,2548.48L2211.49,2548.28L2203.66,2549.79L2186.97,2555.2L2166.49,2563.49L2147.82,2572L2130.08,2580.79L2114.39,2589.16L2097.82,2598.74L2094.55,2600.82Z" style="fill:rgb(191,191,191);stroke:rgb(20,12,17);stroke-width:1.25px;"/>
        <path id="_17-col-6" serif:id="17-col-6" d="M2347.51,3087.71L2345.05,3084.61L2329.63,3060.18L2317.67,3036.67L2309.76,3017.93L2300.28,2990.14L2294.72,2969.3L2289.31,2942.71L2286.23,2921.57L2283.93,2897.6L2282.86,2875.38L2282.74,2852.53L2283.5,2830.45L2285.28,2805.51L2287.26,2786.21L2289.32,2769.84L2292.69,2747.24L2297.39,2720.24L2302.09,2696.25L2306.91,2673.49L2310.76,2656.16L2317.32,2627.76L2318.67,2642.62L2320.38,2659.88L2322.49,2679.68L2324.66,2698.62L2327.34,2720.24L2330.26,2741.75L2333.44,2762.98L2337.35,2786.01L2340.57,2802.6L2345.42,2823.65L2348.34,2804.12L2351.86,2783.26L2356.69,2758.07L2360.6,2739.72L2365.11,2720.24L2369.74,2701.81L2374.83,2683.02L2380.03,2665.05L2385.43,2647.54L2391.11,2630.18L2401.76,2648.76L2409.96,2664.07L2417.28,2678.6L2425.14,2695.26L2431.11,2708.76L2439.06,2728.1L2446.22,2747.14L2450.74,2760.17L2455.68,2775.48L2460.46,2791.66L2464.75,2775.48L2469.64,2759.14L2475.1,2742.8L2480.31,2728.66L2488.41,2708.76L2496.77,2690.3L2505.22,2673.32L2514.56,2656.13L2524.48,2639.33L2538.96,2617.08L2548.65,2636.26L2557.84,2655.99L2565.84,2674.61L2575.63,2699.73L2582.81,2720.24L2591.29,2747.57L2598.72,2775.48L2604.27,2800.07L2608.95,2824.95L2613.3,2854.37L2615.78,2876.93L2617.72,2902.83L2618.82,2927.01L2618.82,2952.75L2617.62,2981.89L2615.26,3006.17L2611.92,3024.89L2610.67,3023.65L2598.45,3012.22L2581.8,2997.45L2568.89,2986.6L2556.81,2976.89L2546.31,2968.79L2547.25,2988.57L2548.94,3005.27L2551.61,3026.3L2554.6,3046.41L2559.05,3072.54L2564.12,3098.8L2569.62,3124.17L2559.99,3134.68L2545.64,3146.37L2529.96,3155.44L2513.87,3161.61L2497.33,3165.14L2482.65,3166.11L2482.74,3150.32L2482.12,3115.19L2481.03,3087.1L2479.55,3061.04L2477.73,3036.41L2474.2,2999.18L2470.89,2970.79L2468.5,2952.75L2347.51,3087.71Z" style="stroke:rgb(20,12,17);stroke-width:1.25px;"/>
        <path id="_18-col-3" serif:id="18-col-3" d="M2739.38,2978.6L2730.2,2975.25L2709.4,2964.28L2685.26,2946.18L2672.38,2933.45L2656.69,2913.97L2639.27,2884.21L2629.95,2861.39L2620.9,2827.22L2616.97,2800.97L2614.62,2775.48L2614.62,2753.52L2615.24,2724.6L2616.54,2698.91L2618.82,2669.01L2620.58,2648.15L2623.35,2622.61L2626.62,2597.06L2630.02,2573.92L2633.92,2550.16L2638.25,2526.51L2644.37,2496.46L2650.59,2469L2656.29,2445.87L2662.2,2423.55L2668.64,2400.82L2674.57,2381.11L2678.78,2367.72L2684.67,2349.74L2686.18,2364.37L2688.18,2383.04L2691.44,2412.39L2694.31,2437.27L2697.39,2462.99L2700.18,2485.4L2703.49,2510.94L2706.7,2534.51L2709.82,2556.26L2713.96,2583.25L2717.12,2602.31L2719.76,2617.08L2723.29,2635.12L2730.24,2617.08L2738.07,2597.93L2745.25,2581.3L2753.01,2564.17L2760.78,2547.81L2771.46,2526.47L2781.45,2507.57L2789.21,2493.5L2801.51,2472.21L2811.08,2456.4L2823.36,2436.99L2834.51,2420.13L2844.88,2405.06L2854.32,2391.79L2860.31,2412.57L2866.56,2434.4L2873.02,2457.3L2878.97,2478.84L2883.95,2497.34L2889.45,2518.49L2894.81,2539.93L2900.54,2564.17L2904.85,2583.59L2910.08,2609.07L2914.28,2631.71L2918.22,2655.78L2922.29,2685.44L2925.43,2715.68L2927.5,2746.65L2928.29,2775.48L2927.88,2804.68L2926.46,2829.94L2923.63,2858.34L2918.01,2891.6L2907.63,2922.75L2897.8,2940.11L2887.51,2952.75L2875.68,2963.21L2861.44,2972.28L2844.85,2979.64L2841.26,2980.57L2828.47,2964.98L2813.74,2947.03L2795.17,2924.38L2774.6,2899.3L2769.17,2910.32L2761.63,2926.25L2752.57,2946.51L2746.07,2961.88L2740.54,2975.58L2739.38,2978.6Z" style="fill:rgb(128,128,128);stroke:rgb(20,12,17);stroke-width:1.25px;"/>
        <path id="_23-col-2" serif:id="23-col-2" d="M2637.86,3317.14L2633.49,3309.12L2624.03,3289.9L2614.87,3269.24L2607.23,3250.23L2599.45,3229.05L2592.43,3208.11L2586.01,3187.21L2580.06,3166.12L2574.18,3143.39L2569.62,3124.17L2564.12,3098.8L2559.05,3072.54L2554.6,3046.41L2551.61,3026.3L2548.94,3005.27L2547.25,2988.57L2546.31,2968.79L2556.81,2976.89L2568.89,2986.6L2581.8,2997.45L2598.45,3012.22L2610.67,3023.65L2625.8,3038.57L2639.86,3053.23L2654.35,3069.22L2667.57,3084.67L2680.03,3100.07L2689.08,3111.82L2696.25,3121.48L2700.93,3101.01L2705.43,3083.07L2710.95,3062.9L2716,3045.81L2721.78,3027.55L2727.93,3009.44L2734.57,2991.13L2740.54,2975.58L2746.07,2961.88L2752.57,2946.51L2761.63,2926.25L2769.17,2910.32L2774.6,2899.3L2795.17,2924.38L2813.74,2947.03L2828.47,2964.98L2843.71,2983.57L2889.56,3039.47L2913.16,3068.24L2922.17,3079.23L2927.7,3065.88L2933.12,3053.7L2939.49,3040.43L2947.41,3025.29L2956,3010.39L2965.73,2995.13L2975.38,2981.44L2985.68,2968.18L2995.57,2956.55L3009.3,2941.93L3021.55,2930.14L3033.16,2919.88L3044.83,2910.33L3056.95,2901.09L3070.35,2891.6L3073.13,2908.73L3075.28,2922.46L3077.63,2938.16L3079.7,2952.75L3081.86,2968.76L3083.77,2983.98L3085.63,3000.04L3087.31,3015.78L3088.82,3031.62L3090.62,3053.51L3092.15,3077.13L3093.27,3102.12L3093.84,3127.84L3093.77,3153.3L3093.14,3176.32L3091.92,3199.14L3089.94,3223.55L3087.7,3243.9L3084.89,3264.38L3080.91,3287.93L3076.9,3307.77L3071.96,3328.77L3067.13,3346.72L3060.45,3368.57L3054.2,3386.74L3048.39,3402.08L3041.83,3417.98L3034.89,3433.47L3027.74,3447.81L3018.6,3463.47L3008.52,3477.51L2996.43,3490.6L2978.74,3504.11L2974.96,3488.52L2969.21,3463.47L2964.36,3441.26L2959.12,3416.17L2954.4,3392.54L2949.51,3367.11L2944.85,3341.94L2940.54,3317.73L2935.96,3290.92L2931.32,3262.31L2929.62,3299.05L2927.89,3326.69L2926.15,3352.34L2924.24,3379.99L2922.51,3405.56L2920.74,3433.34L2919.11,3461.59L2917.32,3498.43L2916.45,3521.72L2908.86,3522.13L2890.78,3521.23L2874.14,3518.88L2854.63,3514.38L2837.88,3509.02L2820.08,3501.89L2802.61,3493.45L2786.58,3484.38L2770.13,3473.66L2756.31,3463.47L2743.63,3453.12L2731.01,3441.81L2719.96,3431.01L2718.07,3428.99L2717.66,3415.32L2716.1,3391.03L2714.33,3372.39L2711.85,3352.12L2709.05,3333.54L2705.8,3315.26L2702.49,3299.05L2680.96,3301.86L2662.46,3306.74L2646.34,3312.92L2637.86,3317.14Z" style="fill:rgb(191,191,191);stroke:rgb(20,12,17);stroke-width:1.25px;"/>
        <path id="_33-col-3" serif:id="33-col-3" d="M1817.91,3490.54L1817.34,3503.2L1817.05,3518.85L1817.28,3537.43L1817.88,3551.43L1818.89,3566.19L1820.18,3579.78L1821.59,3591.66L1823.04,3602.05L1824.98,3614.1L1827.39,3627.15L1829.12,3635.54L1833.9,3627.15L1842,3614.1L1851.32,3600.51L1862.49,3585.84L1874.45,3571.76L1887.6,3557.87L1897.17,3548.66L1908.09,3538.97L1921.21,3528.36L1922.5,3543.34L1924.08,3561.74L1926.63,3591.39L1928.58,3614.1L1930.59,3637.52L1935.32,3627.15L1941.85,3614.1L1949.12,3600.96L1958.83,3585.19L1969.2,3570.12L1981.04,3554.73L1994.27,3539.34L2006.78,3526.28L2008.74,3541.64L2010.85,3559.98L2012.84,3579.73L2014.71,3601.52L2016.31,3624.76L2017.48,3647.23L2018.13,3664.49L2018.64,3686.76L2018.8,3714.1L2018.52,3735.1L2017.99,3754.6L2016.85,3780.5L2015.67,3799.99L2014.32,3818.13L2012.75,3836.1L2010.69,3856.3L2008.28,3876.76L2005.76,3894.33L2002.26,3913.59L1998.97,3927.98L1993.73,3946.13L1987.82,3962.05L1981.11,3976.37L1970.32,3994.03L1959.92,4006.88L1948.33,4017.94L1931.74,4029.44L1914.81,4037.34L1895.44,4042.81L1877.78,4044.94L1862.49,4045.08L1841.42,4041.05L1826.53,4035.85L1806.45,4024.98L1794.96,4016.49L1776.87,3999.15L1765.3,3984.99L1754.03,3968.33L1745.73,3953.79L1738.5,3939.13L1729.7,3918.14L1724.18,3902.47L1718.39,3882.68L1714.73,3867.28L1710.11,3841.33L1707.23,3814.32L1706.18,3785.11L1706.54,3767.81L1708.3,3742.99L1712.15,3714.23L1716.88,3693.81L1723.84,3672.49L1735.83,3642.61L1748.97,3614.1L1760.44,3591.17L1774.12,3565.42L1788.84,3539.11L1802.46,3515.8L1817.91,3490.54Z" style="fill:rgb(128,128,128);stroke:rgb(20,12,17);stroke-width:1.25px;"/>
        <path id="_35-col-4" serif:id="35-col-4" d="M2235.4,3870.85L2249.61,3901.19L2259.58,3923.6L2272.37,3952.5L2284.09,3977.44L2291.95,3992.75L2297.5,4002.86L2305.38,3985.74L2312.83,3970.23L2322.65,3951.18L2334.17,3931.18L2346.22,3912.93L2358.91,3896.37L2373.8,3879.81L2384.91,3869.11L2388.59,3882.62L2395.83,3905.57L2401.98,3923.43L2408.97,3942.62L2416.3,3961.7L2423.08,3978.39L2429.75,3993.5L2435.57,4002.81L2444.62,3992.95L2457.72,3977.93L2482.2,3949.48L2504.96,3922.86L2527.15,3896.83L2545.12,3875.73L2545.17,3896.4L2544.69,3917.8L2543.75,3940.71L2542.25,3964.14L2539.62,3993.57L2537.04,4016.04L2534.39,4035.58L2530.24,4061.83L2524.54,4092.37L2517.38,4125.02L2510.7,4150.39L2501.1,4178.08L2492.75,4196.63L2482.34,4214.83L2467.66,4233.86L2454.46,4246.09L2441.93,4254.43L2429.07,4260.31L2416.93,4263.8L2403.28,4265.65L2390.17,4265.61L2375.39,4263.53L2356.59,4257.65L2341.35,4249.73L2326.84,4238.52L2316.08,4226.32L2303.15,4206.64L2291.88,4185.97L2281.67,4163.59L2273.38,4142.11L2267.11,4123.24L2262.18,4106.38L2257.7,4089.12L2252.83,4067.47L2248.53,4045.08L2245.93,4029.33L2242.94,4008.24L2240.21,3984.67L2238.37,3964.66L2236.19,3930.48L2235.43,3909.2L2235.17,3888.73L2235.4,3870.85Z" style="fill:rgb(91,90,89);stroke:rgb(20,12,17);stroke-width:1.25px;"/>
        <path id="_34-col-2" serif:id="34-col-2" d="M2260.39,4099.47L2260.33,4099.51L2242.22,4108.98L2223.84,4114.14L2206.07,4115.34L2185.58,4112.42L2166.78,4105.75L2150.45,4096.66L2136.62,4086.24L2125.48,4075.65L2112.78,4060.37L2103,4045.08L2094.33,4026.62L2086.84,4006.08L2080.95,3986.73L2076.61,3969.5L2072.34,3948.12L2069.6,3930.15L2067.93,3916.16L2065.67,3888.73L2064.54,3863.19L2064.99,3838.55L2066.51,3818.03L2068.79,3798.1L2071.43,3780.11L2074.62,3761.76L2080.16,3734.54L2087.21,3704.72L2096.59,3669.97L2102.93,3648.68L2111.1,3623.62L2117.25,3650.97L2123.83,3679.2L2130.41,3707.77L2137.13,3739.03L2142.54,3767.81L2145.47,3786.41L2147.15,3798.96L2148.85,3814.53L2150.21,3832.17L2151.61,3807.42L2153.34,3790.58L2155.62,3774.27L2159.37,3753.68L2164.32,3732.22L2170.02,3711.95L2175.03,3696.56L2181.36,3679.36L2185.53,3693L2189.57,3706.95L2194.18,3723.99L2198.8,3742.53L2203.18,3761.78L2207.41,3782.43L2211.06,3802.55L2213.78,3819.51L2215.8,3833.58L2217.62,3847.85L2220.96,3825.65L2224.13,3807.96L2229.82,3781.2L2235.37,3758.93L2241.26,3738.1L2248.8,3714.4L2256.95,3691.51L2267.41,3665.25L2278.72,3639.83L2285.37,3659.06L2291.85,3679.48L2300.09,3708.62L2306.35,3734.16L2311.96,3760.75L2316.49,3786.33L2320.53,3814.57L2323.44,3841.36L2325.53,3869.51L2326.63,3896.83L2326.83,3919.9L2326.31,3944.55L2326.29,3944.86L2322.65,3951.18L2312.83,3970.23L2305.38,3985.74L2297.5,4002.86L2291.95,3992.75L2284.09,3977.44L2272.37,3952.5L2259.58,3923.6L2249.61,3901.19L2235.4,3870.85L2235.17,3888.73L2235.43,3909.2L2236.19,3930.48L2238.37,3964.66L2240.21,3984.67L2242.94,4008.24L2245.93,4029.33L2248.53,4045.08L2252.83,4067.47L2257.7,4089.12L2260.39,4099.47Z" style="fill:rgb(191,191,191);stroke:rgb(20,12,17);stroke-width:1.25px;"/>
        <path id="_29-col-1" serif:id="29-col-1" d="M1954.07,3592.92L1951.31,3579.79L1945.01,3544.95L1940.39,3513.46L1936.35,3477.75L1933.8,3445.76L1932.36,3416.73L1931.74,3384.01L1931.96,3359.33L1932.72,3336.14L1934.07,3312.16L1935.8,3290.35L1937.77,3270.73L1948.01,3291.12L1957.08,3309.61L1969.24,3335.06L1981.51,3361.58L1989.61,3379.7L1999.65,3403.03L2008.02,3423.55L2015.11,3442.1L2019.84,3455.47L2027.45,3480.6L2038.98,3440.39L2046.83,3412.97L2054.83,3385.06L2061.56,3361.58L2067.9,3339.45L2078.1,3353.39L2088.23,3367.94L2098.11,3382.7L2110.69,3402.31L2125.49,3426.56L2136.64,3445.86L2146.02,3463.11L2157.01,3485.68L2173.93,3464.49L2185.97,3448.39L2199.78,3428.81L2215.95,3404.41L2231.03,3380.79L2243.28,3361.58L2257.58,3339.85L2272.09,3319.01L2285.61,3300.78L2289.62,3318.62L2294.15,3340.39L2298.19,3361.58L2302.62,3387.4L2305.44,3405.72L2308.28,3426.19L2310.73,3446.22L2312.6,3463.47L2314.81,3487.45L2316.43,3509.23L2317.94,3536.51L2318.8,3560.52L2319.23,3586.74L2319.08,3615.97L2318.43,3641.06L2317.28,3665.91L2315.72,3686.97L2313.21,3709.38L2309.37,3732.66L2307.62,3740.14L2306.35,3734.16L2300.09,3708.62L2291.85,3679.48L2285.37,3659.06L2278.72,3639.83L2267.41,3665.25L2256.95,3691.51L2248.8,3714.4L2241.26,3738.1L2235.37,3758.93L2229.82,3781.2L2224.13,3807.96L2220.96,3825.65L2217.62,3847.85L2215.8,3833.58L2213.78,3819.51L2211.06,3802.55L2207.41,3782.43L2203.18,3761.78L2198.8,3742.53L2194.18,3723.99L2189.57,3706.95L2185.53,3693L2181.36,3679.36L2175.03,3696.56L2170.02,3711.95L2164.32,3732.22L2159.37,3753.68L2155.62,3774.27L2153.34,3790.58L2151.61,3807.42L2150.21,3832.17L2148.85,3814.53L2147.15,3798.96L2145.47,3786.41L2142.54,3767.81L2137.13,3739.03L2130.41,3707.77L2123.83,3679.2L2117.25,3650.97L2111.1,3623.62L2102.93,3648.68L2096.59,3669.97L2087.21,3704.72L2080.16,3734.54L2074.62,3761.76L2071.43,3780.11L2068.79,3798.1L2066.51,3818.03L2064.99,3838.55L2064.86,3845.47L2052.52,3833.07L2037.66,3814.18L2024.25,3793.76L2016.85,3780.5L2017.99,3754.6L2018.52,3735.1L2018.8,3714.1L2018.64,3686.76L2018.13,3664.49L2017.48,3647.23L2016.31,3624.76L2014.71,3601.52L2012.84,3579.73L2010.85,3559.98L2008.74,3541.64L2006.78,3526.28L1994.27,3539.34L1981.04,3554.73L1969.2,3570.12L1958.83,3585.19L1954.07,3592.92Z" style="fill:rgb(242,242,242);stroke:rgb(20,12,17);stroke-width:1.25px;"/>
        <path id="_21-col-5" serif:id="21-col-5" d="M1931.96,3359.33L1914.12,3356.77L1887.77,3348.99L1864.78,3337.49L1844.63,3321.74L1825.91,3300.78L1811.65,3280.02L1799.14,3257.78L1784.79,3226.7L1772.52,3194.13L1762.56,3162.14L1754.36,3130.18L1747.73,3098.7L1742.34,3067.29L1738.55,3040.14L1735.04,3008.33L1732.72,2980.1L1731.15,2952.75L1730.31,2927.01L1730.23,2899.29L1741.87,2909.27L1753.68,2919.74L1767.97,2932.91L1788.46,2952.75L1804.18,2968.85L1819.25,2985.12L1834.27,3002.37L1847.99,3019.31L1862.6,3039.12L1874.66,3057.71L1878.65,3034.53L1883.53,3010.26L1887.78,2991.65L1894.74,2964.53L1905.16,2929.47L1914.12,2903.03L1924.25,2876.07L1934.41,2851.47L1941.35,2835.81L1954.82,2854.93L1966.63,2871.96L1980.2,2892.01L2018.38,2952.75L2043.89,2999.65L2065.51,3047.53L2082.97,3098.7L2088.08,3118.66L2093.02,3143.42L2097.22,3177.79L2098.11,3199.11L2096.97,3222.89L2093.96,3244.15L2088.65,3265.99L2081.87,3284.88L2073.56,3301.74L2061.19,3319.95L2045.79,3335.7L2027,3348.33L2005.96,3356.56L1981.51,3361.58L1969.24,3335.06L1957.08,3309.61L1948.01,3291.12L1937.77,3270.73L1935.8,3290.35L1934.07,3312.16L1932.72,3336.14L1931.96,3359.33Z" style="fill:rgb(51,51,51);stroke:rgb(20,12,17);stroke-width:1.25px;"/>
        <path id="_37-col-1" serif:id="37-col-1" d="M2740.04,3937.79L2749.1,3942.62L2758.58,3948.98L2771.43,3959.9L2783.38,3972.7L2794.06,3986.44L2802.86,3999.5L2811.02,4013.02L2819.84,4029.11L2823.43,4001.98L2827.16,3973.83L2831.2,3943.34L2833.96,3922.51L2842.94,3930.65L2854.79,3942.16L2867.67,3955.79L2880.74,3970.99L2892.42,3985.95L2903.58,4001.68L2915.3,4020.07L2921.85,4031.39L2932.42,4018.71L2947.83,4001.39L2963.77,3984.79L2977.54,3971.4L2993.88,3956.55L3011.78,3941.45L3033.63,3924.53L3048.23,3914.07L3055.29,3909.67L3060.31,3910.56L3063.46,3914.84L3065.15,3926.11L3066.49,3949.55L3067.06,3970.64L3067.05,3992L3066.45,4012.76L3064.77,4040.51L3062.83,4061.38L3059.45,4088.36L3055.1,4115.27L3051.13,4135.66L3046.32,4157.11L3040.97,4178.01L3034.08,4200.91L3026.08,4222.43L3018.09,4239.74L3007.81,4257.63L2996.55,4273.11L2985.26,4285.37L2973.47,4295.63L2965.42,4301.44L2952.19,4309.17L2939.76,4314.57L2926.19,4318.55L2915.3,4320.86L2903.58,4320.86L2887.61,4319.18L2873.19,4315.34L2857.54,4308.62L2845.28,4301.34L2833.15,4292.16L2819.24,4278.64L2808.77,4265.65L2797.94,4248.88L2789.89,4233.51L2783.43,4218.81L2776.89,4201.16L2771.41,4183.81L2767.07,4166.94L2763.42,4149.33L2759.96,4129.52L2755.94,4102.48L2752.47,4075.22L2748.91,4043.2L2746.62,4020.02L2743.61,3985.96L2740.04,3937.79Z" style="fill:rgb(242,242,242);stroke:rgb(20,12,17);stroke-width:1.25px;"/>
        <path id="_36-col-3" serif:id="36-col-3" d="M2757.54,4113.21L2748.42,4114.25L2730.34,4113.41L2714.75,4111.03L2698.91,4106.73L2683.13,4100.13L2667.31,4090.59L2651.74,4077.39L2637.87,4061.21L2626.7,4043.78L2618.13,4026.42L2611.07,4008.2L2606.07,3992L2600.67,3969.48L2597.01,3948.93L2593.35,3918.49L2591.61,3893.71L2590.66,3859.77L2590.89,3831.52L2591.67,3806.8L2593.36,3789.69L2596.74,3771.06L2600.48,3754.39L2605.04,3737.09L2609.7,3721.93L2614.97,3707.44L2619.68,3696.7L2624.76,3687.5L2629.1,3681.61L2632.71,3678.18L2639.05,3685.18L2649.16,3697.18L2659.48,3710.71L2673.61,3732L2681.14,3745.09L2689.7,3762.09L2695.94,3776.52L2700.44,3788.52L2703.51,3797.78L2719.13,3780.44L2739.5,3758.74L2759.75,3738.08L2783.89,3714.57L2800.74,3698.82L2815.94,3685.05L2829.44,3673.16L2836.41,3686.4L2842.79,3699.64L2850.05,3716.46L2856.53,3733.57L2862.07,3750.52L2866.3,3765.69L2870.37,3783.22L2877.99,3772.51L2892.22,3756.86L2904.99,3745.86L2917.83,3736.79L2930.57,3729.34L2941.72,3723.89L2948.06,3720.64L2950.14,3722.15L2951.32,3726.76L2952.19,3737.31L2952.13,3752.21L2951.15,3768.73L2949.52,3784.93L2947.07,3802.37L2944.01,3819.02L2939.69,3837.97L2934.53,3857.38L2925.01,3888.2L2915.3,3915.54L2903.85,3944.1L2894.92,3964.2L2887.37,3979.48L2880.74,3970.99L2867.67,3955.79L2854.79,3942.16L2842.94,3930.65L2833.96,3922.51L2831.2,3943.34L2827.16,3973.83L2823.43,4001.98L2819.84,4029.11L2811.02,4013.02L2802.86,3999.5L2794.06,3986.44L2783.38,3972.7L2771.43,3959.9L2758.58,3948.98L2749.1,3942.62L2740.04,3937.79L2743.61,3985.96L2746.62,4020.02L2748.91,4043.2L2752.47,4075.22L2755.94,4102.48L2757.54,4113.21Z" style="fill:rgb(128,128,128);stroke:rgb(20,12,17);stroke-width:1.25px;"/>
        <path id="_30-col-5" serif:id="30-col-5" d="M2590.78,3845.45L2590.64,3845.58L2573.09,3855.79L2558.5,3859.14L2538.7,3860.53L2517.33,3859.09L2500.29,3855.86L2475.73,3847.44L2453.25,3834.16L2437.24,3818.85L2426.35,3802.27L2416.78,3778.52L2408.96,3755.96L2402.32,3734.85L2395.66,3711.52L2389.85,3689.06L2383.68,3662.39L2377.41,3631.17L2372.94,3605.13L2369.28,3579.73L2365.51,3545.87L2363.14,3512.04L2362.38,3481.04L2362.94,3455.95L2364.87,3430.4L2369.03,3402.4L2374.63,3379.65L2380.26,3363.87L2385.12,3353.47L2390.89,3345.32L2396.9,3344.13L2407.77,3348.97L2416.55,3355.99L2427.75,3367.25L2438.67,3379.88L2449.74,3394.94L2460.33,3412.42L2466.55,3424.72L2473.38,3440.89L2478.58,3456.29L2482.74,3472.22L2485.94,3489.64L2487.76,3506.84L2488.27,3521.28L2487.94,3534.01L2486.61,3549.01L2484.42,3562.87L2490.48,3540.13L2495.86,3521.21L2501.6,3502.5L2508.17,3483.05L2515.58,3463.47L2522.81,3446.51L2532.81,3425.98L2545.67,3403.61L2557.03,3386.86L2569.59,3371.11L2582.65,3357.12L2598.93,3342.4L2614.13,3330.96L2630.36,3320.87L2646.34,3312.92L2662.46,3306.74L2680.96,3301.86L2702.49,3299.05L2705.8,3315.26L2709.05,3333.54L2711.85,3352.12L2714.33,3372.39L2716.1,3391.03L2717.66,3415.32L2718.43,3440.85L2718.36,3463.47L2717.21,3492.98L2714.9,3522.13L2711.96,3547.27L2708.98,3567.39L2705.03,3589.53L2699.51,3615.43L2694.27,3636.57L2686.59,3663.53L2679.49,3685.5L2671.6,3707.46L2666.24,3720.9L2659.48,3710.71L2649.16,3697.18L2639.05,3685.18L2632.71,3678.18L2629.1,3681.61L2624.76,3687.5L2619.68,3696.7L2614.97,3707.44L2609.7,3721.93L2605.04,3737.09L2600.48,3754.39L2596.74,3771.06L2593.36,3789.69L2591.67,3806.8L2590.89,3831.52L2590.78,3845.45Z" style="fill:rgb(53,51,51);stroke:rgb(20,12,17);stroke-width:1.25px;"/>
        <path id="_22-col-4" serif:id="22-col-4" d="M2210.27,3412.99L2202.03,3404.46L2187.71,3386.23L2176.75,3369.37L2167.55,3352.7L2159.12,3334.96L2151.25,3315.74L2145.26,3299.05L2139.71,3281.71L2134.15,3262.22L2128.74,3240.67L2123.45,3216.15L2119.5,3194.8L2116.02,3172.95L2113.23,3152.57L2110.15,3125.87L2108.18,3105.59L2105.93,3078.08L2104.24,3053.39L2103.05,3033.69L2101.94,3013.72L2100.57,2987.33L2107.95,3008.64L2116.05,3030.08L2125.49,3052.93L2139.73,3082.73L2149.01,3098.7L2156.4,3109.04L2162.98,3116.15L2171.61,3098.7L2183.63,3075.16L2197.76,3048.61L2214.31,3018.89L2228.31,2994.88L2232.38,2989.27L2235.97,2985.53L2240.13,2982.6L2243.99,2981.18L2248.18,2981.04L2252.2,2982.3L2256.48,2985.38L2259.01,2988.07L2271.55,3004.77L2284.63,3022.41L2299.52,3042.48L2319.25,3069.08L2339.61,3096.53L2468.5,2952.75L2470.89,2970.79L2474.2,2999.18L2477.73,3036.41L2479.55,3061.04L2481.03,3087.1L2482.12,3115.19L2482.74,3150.32L2482.55,3184.43L2481.96,3208.11L2480.66,3237.36L2479.08,3259.04L2476.84,3279.63L2473.61,3300.45L2469.28,3320.69L2464.44,3338.01L2458.64,3354.48L2450.7,3372.42L2443.3,3385.86L2443.19,3386.03L2438.67,3379.88L2427.75,3367.25L2416.55,3355.99L2407.77,3348.97L2396.9,3344.13L2390.89,3345.32L2385.12,3353.47L2380.26,3363.87L2374.63,3379.65L2369.03,3402.4L2364.87,3430.4L2362.94,3455.95L2362.38,3456.21L2341.47,3461.76L2321.12,3463.47L2312.52,3462.75L2310.73,3446.22L2308.28,3426.19L2305.44,3405.72L2302.62,3387.4L2298.19,3361.58L2294.15,3340.39L2289.62,3318.62L2285.61,3300.78L2272.09,3319.01L2257.58,3339.85L2243.28,3361.58L2231.03,3380.79L2215.95,3404.41L2210.27,3412.99Z" style="fill:rgb(91,90,89);stroke:rgb(20,12,17);stroke-width:1.25px;"/>
        <path id="_38-col-6" serif:id="38-col-6" d="M3172.64,3762.38L3180.15,3769.96L3192.09,3787.72L3202.52,3804.54L3211.93,3820.47L3225.89,3845.38L3238.71,3869.95L3249.04,3891.56L3257.25,3910.82L3262.48,3925.22L3265.28,3934.7L3273.05,3918.18L3280.94,3902.22L3294.14,3877.06L3309.4,3850.06L3323.35,3827.03L3342.83,3797.15L3357.7,3775.9L3370.37,3758.72L3377.26,3769.4L3386.58,3784.82L3396.21,3802.1L3408.04,3825.62L3421.03,3855.33L3431.78,3884.36L3442.08,3918.18L3448.66,3945.15L3454.37,3975.29L3458.77,4008.97L3461.06,4041.13L3461.44,4074.67L3460.13,4103.49L3456.89,4135.33L3453.41,4157.87L3446.65,4188.7L3439.12,4210.79L3426.25,4234.8L3414.42,4249.26L3404.5,4258.39L3388.66,4269.38L3371.09,4277.99L3353.1,4283.9L3333.22,4287.63L3314.63,4288.74L3294.14,4287.39L3272.05,4282.76L3251.4,4275.01L3228.75,4262.38L3211.67,4249.59L3196.34,4235.18L3181.24,4217.58L3162.06,4188.31L3148.99,4161.03L3139.1,4132.03L3134.04,4110.93L3130,4086.52L3127.23,4054.57L3127,4016.2L3129.41,3977.61L3131.74,3955.33L3136.75,3918.18L3143.37,3879.08L3149.85,3846.98L3156.1,3819.77L3162.06,3796.29L3167.61,3777.63L3172.64,3762.38Z" style="stroke:rgb(20,12,17);stroke-width:1.25px;"/>
        <path id="_31-col-4" serif:id="31-col-4" d="M2923.28,3733.61L2921.81,3722.09L2918.95,3691.61L2917.18,3664.48L2916.05,3638.14L2915.35,3604.01L2915.3,3579.79L2915.67,3550.71L2916.43,3522.13L2917.32,3498.43L2919.11,3461.59L2920.74,3433.34L2922.51,3405.56L2924.24,3379.99L2926.15,3352.34L2927.89,3326.69L2929.62,3299.05L2931.32,3262.31L2935.96,3290.92L2940.54,3317.73L2944.85,3341.94L2949.51,3367.11L2954.4,3392.54L2959.12,3416.17L2964.36,3441.26L2969.21,3463.47L2974.96,3488.52L2980.42,3511.05L2986.86,3535.94L2992.61,3556.57L2999.66,3579.79L3006.95,3601.23L3081.12,3424.24L3086.51,3442.57L3093.14,3463.47L3098.6,3479.54L3104.42,3495.72L3111.45,3514.14L3119.45,3533.84L3127.02,3551.43L3140.13,3579.79L3149.87,3599.41L3157.49,3614.04L3164.59,3627.13L3355.02,3399.86L3352.6,3422.07L3350.78,3440.76L3348.7,3463.47L3344.75,3507.7L3341.47,3542.76L3337.68,3579.79L3334.36,3608.86L3330.9,3636.19L3326.9,3664.48L3322.44,3692.45L3317.67,3718.99L3311.7,3748.14L3305.01,3776.58L3298.26,3801.58L3289.29,3830.2L3277.93,3860.53L3267.24,3884.34L3255.91,3905.53L3255.36,3906.39L3249.04,3891.56L3238.71,3869.95L3225.89,3845.38L3211.93,3820.47L3202.52,3804.54L3192.09,3787.72L3180.15,3769.96L3172.64,3762.38L3167.61,3777.63L3162.06,3796.29L3156.1,3819.77L3149.85,3846.98L3143.37,3879.08L3136.75,3918.18L3131.74,3955.33L3129.41,3977.61L3128.51,3991.93L3114.94,3992L3091.29,3989.47L3074.24,3985.67L3067.05,3983.21L3067.06,3970.64L3066.49,3949.55L3065.15,3926.11L3063.46,3914.84L3060.31,3910.56L3055.29,3909.67L3048.23,3914.07L3033.63,3924.53L3011.78,3941.45L3006.37,3946.01L2993.22,3932.4L2978.42,3912.16L2966.13,3890.83L2955.36,3867.37L2947.48,3846.27L2941.97,3827.99L2944.01,3819.02L2947.07,3802.37L2949.52,3784.93L2951.15,3768.73L2952.13,3752.21L2952.19,3737.31L2951.32,3726.76L2950.14,3722.15L2948.06,3720.64L2941.72,3723.89L2930.57,3729.34L2923.28,3733.61Z" style="fill:rgb(91,90,89);stroke:rgb(20,12,17);stroke-width:1.25px;"/>
        <path id="_19-col-4" serif:id="19-col-4" d="M3253.89,3004.63L3247.84,2997.4L3234.06,2977.38L3223.82,2959.84L3211.36,2935.17L3199.58,2907.2L3191.06,2882.7L3185.39,2863.39L3180.03,2841.79L3175.02,2816.81L3171.33,2793.18L3168.22,2765.94L3166.26,2739.44L3165.48,2721.73L3165.07,2700.96L3165.17,2679.42L3165.86,2655.73L3167.08,2632.15L3169.09,2605.16L3171.28,2581.95L3174.11,2556.72L3184.96,2566.47L3194.55,2575.3L3210.24,2590.3L3224.42,2604.57L3236.27,2617.08L3249.07,2631.2L3264.02,2648.36L3275.62,2662.04L3285.89,2674.32L3293.62,2683.61L3304.53,2669.01L3318.66,2651.47L3333.7,2633.06L3345.91,2617.08L3358.94,2598.05L3365.68,2587.18L3380.22,2604.47L3395.39,2622.51L3427.66,2660.88L3442.39,2678.41L3459.93,2699.26L3467,2687.84L3476.24,2674.59L3486.56,2660.92L3501.05,2642.93L3513.39,2628.47L3529.01,2611.11L3541.52,2597.91L3552.72,2586.62L3561.74,2577.9L3560.58,2597.89L3559.22,2617.08L3557.29,2640.36L3554.53,2669.01L3553.26,2680.67L3540.8,2676.73L3525.38,2672.87L3526.36,2690.74L3527.83,2714.07L3529.57,2738.72L3532.17,2771.34L3535.12,2803.46L3531.64,2820.96L3525.99,2846.27L3518.78,2874.49L3510.22,2902.92L3502.46,2924.82L3493.2,2946.89L3482.1,2968.4L3469.02,2988.28L3457.41,3003L3441,3020.28L3433.67,3026.6L3431.04,3018.08L3425.09,3000.88L3418.59,2984.26L3411.76,2968.91L3404.18,2979.09L3396.28,2990.53L3386.8,3005.6L3377.03,3023.07L3367.18,3043.34L3360.29,3059.7L3349.49,3060.07L3334.07,3058.28L3317.44,3053.56L3308.02,3049.31L3300.8,3035.28L3291.66,3017.52L3269.51,2974.48L3260.82,2990.91L3253.89,3004.63Z" style="fill:rgb(91,90,89);stroke:rgb(89,89,89);stroke-width:1.25px;"/>
        <path id="_20-col-4" serif:id="20-col-4" d="M3778.81,2757.92L3774.1,2752.71L3754.6,2728.33L3739.85,2707.37L3723.3,2680.49L3711.7,2658.97L3695.54,2623.91L3686.71,2601.36L3678.59,2577.61L3672.37,2556.72L3664.25,2524.18L3658.63,2496.07L3654.11,2467.25L3651.41,2441.98L3649.91,2420.8L3662.74,2424.98L3684.94,2435.12L3705.44,2448.38L3724.65,2465.47L3741.74,2486.91L3749.75,2500.8L3754.34,2511.03L3761.38,2499.1L3769.75,2484.91L3791.95,2447.29L3804.3,2426.38L3815.84,2436.33L3826.56,2446.97L3835.52,2457.17L3844.15,2468.43L3857.53,2489.92L3864.48,2504.22L3868.48,2514.15L3874.62,2500.83L3881.18,2488.47L3890.22,2472.87L3904.05,2450.85L3919.17,2428.54L3932.71,2409.95L3950.45,2387.93L3961.69,2376.18L3967.11,2371.75L3972.64,2369.36L3976.58,2372.19L3980.56,2380.17L3984.17,2390.94L3991.2,2412.22L3998.46,2434.83L4009.26,2470.54L4017.08,2499.08L4022.95,2523.07L4029.85,2556.72L4033.7,2580.9L4037.06,2612.15L4038.3,2637.72L4037.87,2656.18L4024.07,2638.14L4012.36,2624.34L4000.4,2611.48L3992.66,2627.03L3984.52,2645.99L3978.79,2661.65L3972.34,2682.95L3967.66,2702.79L3964.89,2718.08L3963.1,2731.11L3961.25,2752.48L3957.13,2735.29L3953.17,2721.82L3947.36,2705.23L3940.09,2687.76L3931.42,2670.08L3922.25,2653.92L3912.3,2638.58L3899.02,2620.87L3890.89,2612L3881.65,2604.17L3872.56,2598.83L3865.08,2596.14L3859.51,2595.11L3857.2,2596.4L3855.37,2599.68L3853.26,2607.18L3850.95,2623.93L3849.63,2645.99L3849.23,2670.93L3849.3,2675.68L3849.18,2675.78L3835.1,2689.19L3816.71,2708.63L3800.54,2727.82L3786.49,2746.45L3778.81,2757.92Z" style="fill:rgb(91,90,89);stroke:rgb(89,89,89);stroke-width:1.25px;"/>
        <path id="_24-col-3" serif:id="24-col-3" d="M3283.14,3485.65L3265.12,3478.42L3247.81,3468.61L3233.78,3458.17L3222.13,3447.41L3209.51,3433.05L3196.74,3414.92L3187.62,3399.11L3179.57,3382.68L3171.9,3364.49L3162.85,3339.62L3156.97,3321.84L3148.43,3295.91L3141.38,3271.93L3135.15,3244.73L3131.26,3220.97L3128.78,3197.58L3127.34,3168.56L3127.29,3141.31L3128.03,3116.45L3129.99,3082.51L3132.81,3060.07L3136.29,3041.01L3139.66,3026.12L3144.01,3009.87L3148.56,2995.5L3157.75,3018.55L3173.72,3058.59L3188.22,3094.97L3202.18,3129.99L3206.75,3116.6L3211.63,3102.95L3216.54,3089.8L3222.94,3073.51L3230.48,3055.34L3237.82,3038.59L3245.27,3022.4L3252.94,3006.51L3260.82,2990.91L3269.51,2974.48L3291.66,3017.52L3300.8,3035.28L3312.23,3057.49L3321.22,3074.95L3330.03,3092.08L3342.96,3117.2L3346.51,3102.17L3350.1,3089.24L3355.02,3073.97L3360.29,3059.7L3367.18,3043.34L3377.03,3023.07L3386.8,3005.6L3396.28,2990.53L3404.18,2979.09L3411.76,2968.91L3418.59,2984.26L3425.09,3000.88L3431.04,3018.08L3436.66,3036.32L3441.15,3052.5L3445.18,3068.53L3450.07,3090.28L3453.61,3108.05L3456.85,3126.24L3459.56,3143.39L3461.92,3160.36L3464.3,3180.26L3466.34,3201.14L3467.68,3218.39L3468.75,3236.84L3469.48,3257.12L3469.64,3274.93L3458.84,3247.83 3458.84,3247.83L3449.6,3223.87L3440.62,3200L3430.62,3172.79L3421.21,3146.68L3411.7,3119.76L3402.83,3094.1L3403.5,3121.38L3404.36,3145.36L3405.36,3166.05L3406.96,3191.52L3409.57,3222.63L3412.55,3249.86L3416.14,3276.3L3421.26,3306.63L3426.16,3330.57L3432.89,3358.3L3442.98,3392.42L3451.96,3417.72L3448.28,3428.92L3441.52,3444.63L3432.22,3460.74L3420.78,3474.56L3408.08,3484.46L3390.91,3491.34L3373.25,3493.78L3355.96,3495.04L3345.88,3495.07L3348.7,3463.47L3350.78,3440.76L3352.6,3422.07L3355.02,3399.86L3283.14,3485.65Z" style="fill:rgb(128,128,128);stroke:rgb(20,12,17);stroke-width:1.25px;"/>
        <path id="_27-col-5" serif:id="27-col-5" d="M3687.53,3152.97L3676.92,3147.92L3657.85,3135.86L3640.91,3121.71L3623.81,3103.19L3607.25,3080.21L3592.61,3054.21L3581.9,3030.58L3569.82,2997.64L3560.43,2966.37L3553.12,2935.04L3547.53,2903.67L3542.83,2871.43L3538.72,2837.93L3535.33,2805.76L3532.17,2771.34L3529.57,2738.72L3527.83,2714.07L3526.36,2690.74L3525.38,2672.87L3540.8,2676.73L3556.6,2681.73L3575.08,2688.98L3594.04,2698.1L3610.16,2707.3L3630.91,2721.34L3647.1,2734.27L3665.4,2751.41L3681.68,2769.49L3693.59,2784.94L3706.3,2804.3L3715.55,2821.05L3722.1,2834.92L3729.72,2854.42L3736.62,2836.51L3744.84,2817.76L3753.04,2801.09L3762.27,2784.17L3771.14,2769.38L3786.49,2746.45L3800.54,2727.82L3816.71,2708.63L3835.1,2689.19L3849.18,2675.78L3872.47,2655.99L3880.22,2673.35L3885.62,2689.95L3890.55,2711.88L3893.86,2735.39L3895.75,2757.75L3897.15,2784.16L3898.02,2814.62L3898.15,2839.95L3897.7,2866.24L3896.58,2894.39L3894.74,2923.09L3892.74,2946.2L3889.85,2973.03L3886.73,2996.89L3883.13,3018.26L3877.32,3043.96L3869.73,3068.56L3859.57,3092.61L3850.49,3108.82L3840.59,3122.74L3829.37,3135.08L3815.16,3146.85L3795.43,3157.98L3776.2,3164.32L3760.7,3166.45L3756.39,3150.12L3748.54,3124.33L3740.33,3100.11L3733.11,3080.58L3726.87,3064.84L3716.85,3087.29L3705.33,3113.1L3687.53,3152.97Z" style="fill:rgb(53,51,51);stroke:rgb(20,12,17);stroke-width:1.25px;"/>
        <path id="_28-col-3" serif:id="28-col-3" d="M3849.3,2675.68L3849.23,2670.93L3849.63,2645.99L3850.95,2623.93L3853.26,2607.18L3855.37,2599.68L3857.2,2596.4L3859.51,2595.11L3865.08,2596.14L3872.56,2598.83L3881.65,2604.17L3890.89,2612L3899.02,2620.87L3912.3,2638.58L3922.25,2653.92L3931.42,2670.08L3940.09,2687.76L3947.36,2705.23L3953.17,2721.82L3957.13,2735.29L3961.25,2752.48L3963.1,2731.11L3964.89,2718.08L3967.66,2702.79L3972.34,2682.95L3978.79,2661.65L3984.52,2645.99L3992.66,2627.03L4000.4,2611.48L4012.36,2624.34L4024.07,2638.14L4037.87,2656.18L4051.24,2675.92L4062.42,2694.6L4073.78,2716.31L4082.1,2734.62L4089.21,2752.51L4097.59,2777.74L4109.14,2754.7L4122.1,2732.15L4134.98,2711.34L4148.11,2691.25L4162.63,2670.17L4180.45,2645.99L4198.37,2624.12L4209.11,2613.05L4215.19,2608.16L4219.13,2606.14L4221.57,2605.93L4226.77,2622.81L4232.26,2645.99L4235.67,2666.22L4237.88,2685.74L4239.15,2705.66L4239.54,2725.11L4238.49,2758.78L4235.94,2789.31L4232.17,2819.86L4227.09,2851.86L4221.16,2880.5L4213.59,2908.93L4205.3,2933.51L4197.34,2952.75L4186.53,2974.13L4176.88,2989.8L4164.98,3005.8L4154.21,3017.78L4141.85,3029.2L4125.83,3041.01L4107.07,3051.37L4091.69,3057.38L4072.24,3062.29L4051.93,3064.64L4029.93,3064.25L4004.43,3060.07L3985.2,3054.07L3962.36,3043.22L3939.97,3027.38L3929.01,3016.9L3917.3,3002.8L3903.09,2980.35L3891.7,2955.88L3892.74,2946.2L3894.74,2923.09L3896.58,2894.39L3897.7,2866.24L3898.15,2839.95L3898.02,2814.62L3897.15,2784.16L3895.75,2757.75L3893.86,2735.39L3890.55,2711.88L3885.62,2689.95L3880.22,2673.35L3872.47,2655.99L3849.3,2675.68Z" style="fill:rgb(128,128,128);stroke:rgb(20,12,17);stroke-width:1.25px;"/>
        <path id="_26-col-6" serif:id="26-col-6" d="M4005.97,3673.79L3987.45,3673.92L3958.89,3668.83L3931.32,3658.77L3910.24,3647.48L3886.29,3630.25L3868.94,3614.1L3853.78,3596.48L3840.48,3576.89L3830.18,3557.2L3820.89,3534.07L3814.7,3513.62L3809.06,3486.92L3805.91,3462L3804.43,3426.91L3806.36,3385.74L3810.71,3349.95L3816.82,3315.68L3823.41,3285.84L3830.88,3256.59L3842.5,3217.44L3854.18,3183.35L3866.68,3150.93L3878.26,3123.75L3889.08,3100.32L3900.95,3076.42L3910.39,3058.56L3915.95,3074.37L3921.96,3091.8L3928.67,3111.7L3936.35,3135.15L3943.06,3156.45L3948.97,3176.19L3953.68,3193.13L3958.06,3210.92L3979.78,3183.52L3999.06,3159.2L4013.61,3140.85L4029.77,3120.48L4034.64,3145.12L4041.84,3181.53L4048.34,3214.41L4053.51,3240.61L4058.08,3263.71L4081.37,3232L4101.71,3206.96L4117.05,3189.47L4134.74,3170.6L4151.08,3154.3L4167.59,3138.82L4184.57,3123.86L4201.22,3110.06L4207.93,3125.06L4212.72,3139.32L4217.05,3157.34L4220.3,3178.99L4222.18,3204.1L4222.78,3232L4222.68,3258.5L4222.19,3281.42L4220.95,3310.44L4217.99,3349.27L4214.01,3382.75L4208.55,3415.61L4201.63,3447L4194.27,3473.47L4184.24,3502.71L4172.24,3531.09L4160.01,3555.07L4145.6,3578.86L4145.58,3578.88L4139.49,3580.74L4122.44,3587.66L4100.3,3598.65L4081.92,3609.57L4061,3624.1L4039.57,3641.42L4020.63,3658.86L4005.97,3673.79Z" style="stroke:rgb(20,12,17);stroke-width:1.25px;"/>
        <path id="_39-col-3" serif:id="39-col-3" d="M3547.5,3701.89L3546.25,3714.87L3545.96,3731.03L3547.39,3750.2L3550.03,3765.95L3554.39,3782.82L3559.44,3797.2L3564.25,3808.26L3570.14,3819.68L3574.36,3805.65L3579.71,3790.2L3585.69,3775.13L3593.22,3758.45L3603.03,3739.54L3611.28,3750.2L3623.42,3766.85L3634.01,3782.4L3644.88,3799.53L3655.87,3818.26L3665.59,3803.5L3674.4,3789.47L3686.87,3768.45L3697,3750.2L3710.28,3724.44L3719.76,3704.54L3725.67,3691.36L3729.21,3712.44L3733.39,3733.77L3738.32,3756.33L3745.28,3785.67L3757.75,3835.84L3765.4,3867.71L3774.29,3909.67L3779.12,3938.24L3782.54,3966.19L3784.3,3992L3784.24,4024.19L3782.31,4048.25L3778.15,4074.36L3772.52,4096.79L3762.68,4123.04L3752.06,4143.03L3737.14,4163.22L3723.88,4176.19L3705.8,4188.67L3688.39,4196.37L3667.33,4201.26L3642.51,4201.95L3622.21,4198.94L3599.29,4191.86L3579.98,4182.73L3560.85,4170.41L3544.63,4156.73L3528.92,4139.42L3516.72,4121.42L3506.32,4101.31L3500,4085.6L3494.35,4067.6L3489.9,4048.57L3486.41,4026.65L3484.48,4006.62L3483.44,3980.18L3484.06,3946.82L3485.64,3920.83L3487.55,3900.16L3490.11,3879.63L3493.2,3860.03L3497.4,3838.37L3502.09,3818.07L3508.13,3795.93L3513.99,3777.32L3519.09,3762.84L3523.96,3750.2L3529.19,3737.75L3535.22,3724.66L3540.68,3713.87L3547.5,3701.89Z" style="fill:rgb(128,128,128);stroke:rgb(20,12,17);stroke-width:1.25px;"/>
        <path id="_32-col-5" serif:id="32-col-5" d="M3493.12,3860.58L3487.01,3853.66L3477.01,3839.49L3468.43,3824.76L3461.44,3810.43L3455.37,3795.85L3450.05,3782.03L3444.05,3765.2L3437.64,3745.48L3432.28,3727.26L3427.42,3708.98L3423.2,3691.34L3419.25,3672.93L3415.68,3654.02L3412.41,3633.98L3409.92,3616.05L3407.54,3595.26L3405.94,3577.7L3404.76,3560.55L3403.91,3542.23L3403.55,3525.23L3403.56,3512.56L3404.04,3497.05L3413.7,3504.44L3422.97,3512.15L3435.44,3523.58L3444.4,3532.63L3453.22,3542.35L3462.12,3553.07L3470.88,3564.72L3478,3575.15L3481.7,3565.91L3486.42,3554.97L3491.87,3543.32L3498.01,3531.24L3505.22,3518.21L3511.48,3507.72L3524.07,3488.57L3531.62,3500.75L3541.59,3516.72L3552.07,3533.27L3562.23,3549L3571.62,3563L3580.97,3574.69L3591.81,3563.39L3603.45,3549L3615.01,3534.56L3632.31,3513.42L3645.41,3498.57L3650.68,3493.29L3654.91,3489.8L3657.26,3488.57L3658.98,3489.03L3660.37,3492.62L3661.56,3497.51L3663.01,3505.1L3664.93,3517.59L3667.11,3535.16L3669.35,3557.82L3671.08,3580.34L3672.18,3599.4L3673.05,3620.99L3673.53,3645.82L3673.45,3667.57L3673.03,3684.65L3671.79,3708.97L3670.07,3729.39L3667.71,3748.88L3664.91,3766.01L3660.78,3784.84L3654.64,3804.94L3651.84,3811.39L3644.88,3799.53L3634.01,3782.4L3623.42,3766.85L3611.28,3750.2L3603.03,3739.54L3593.22,3758.45L3585.69,3775.13L3579.71,3790.2L3574.36,3805.65L3570.14,3819.68L3564.25,3808.26L3559.44,3797.2L3554.39,3782.82L3550.03,3765.95L3547.39,3750.2L3545.96,3731.03L3546.25,3714.87L3547.5,3701.89L3540.68,3713.87L3535.22,3724.66L3529.19,3737.75L3523.96,3750.2L3519.09,3762.84L3513.99,3777.32L3508.13,3795.93L3502.09,3818.07L3497.4,3838.37L3493.2,3860.03L3493.12,3860.58Z" style="fill:rgb(53,51,51);stroke:rgb(20,12,17);stroke-width:1.25px;"/>
        <path id="_40-col-2" serif:id="40-col-2" d="M3711.86,3721.14L3711.98,3706.45L3712.61,3682.55L3714.1,3650.85L3717.71,3603.89L3722.29,3562.92L3726.79,3531.23L3732.74,3496.4L3738.87,3465.29L3749.58,3477.16L3760.32,3489.86L3774.78,3508.36L3793.48,3535.14L3808.1,3558.85L3819.97,3580.4L3831.13,3603.05L3839.74,3622.62L3849.01,3646.41L3856.7,3669.15L3861.99,3687.09L3867.67,3709.47L3872.24,3731.29L3876.4,3756.8L3878.95,3778.62L3880.49,3798.58L3881.17,3814.91L3880.96,3848.1L3896.34,3823L3910.49,3800.5L3929.26,3771.84L3947.24,3745.94L3968.37,3717.7L3985.89,3696.21L4005.13,3674.65L4020.63,3658.86L4039.57,3641.42L4061,3624.1L4081.92,3609.57L4100.3,3598.65L4122.44,3587.66L4139.49,3580.74L4169.12,3571.7L4169.19,3597.43L4168.37,3631.99L4166.37,3668.29L4163.17,3705.02L4159.25,3738.22L4154.96,3767.64L4150.4,3794.32L4142.24,3834.78L4134.73,3866.7L4128.8,3889.42L4121.73,3914.32L4111.97,3945.59L4104.26,3968.34L4094.07,3996.2L4085.76,4017.41L4076.12,4040.55L4068.36,4057.98L4057.84,4079.25L4046.31,4099.46L4035.21,4116.07L4022.78,4131.72L4011.23,4143.8L3994.52,4157.61L3974.29,4169.45L3956.84,4176.05L3940.5,4179.54L3922.65,4180.71L3906.07,4179.56L3886.37,4175.53L3868.55,4169.45L3849.15,4160.06L3832.19,4149.23L3813.6,4133.9L3803.39,4123.46L3793.48,4111.8L3782.83,4097.56L3775.31,4085.69L3778.15,4074.36L3782.31,4048.25L3784.24,4024.19L3784.3,3992L3782.54,3966.19L3779.12,3938.24L3774.29,3909.67L3765.4,3867.71L3757.75,3835.84L3745.28,3785.67L3738.32,3756.33L3733.39,3733.77L3729.21,3712.44L3725.67,3691.36L3719.76,3704.54L3711.86,3721.14Z" style="fill:rgb(191,191,191);stroke:rgb(20,12,17);stroke-width:1.25px;"/>
        <path id="_25-col-1" serif:id="25-col-1" d="M3504.93,3518.72L3489.4,3495.26L3476.89,3473.05L3465.34,3449.63L3452.06,3418.02L3442.98,3392.42L3432.89,3358.3L3426.16,3330.57L3421.26,3306.63L3416.14,3276.3L3412.55,3249.86L3409.57,3222.63L3406.96,3191.52L3405.36,3166.05L3404.36,3145.36L3403.5,3121.38L3402.83,3094.1L3411.7,3119.76L3421.21,3146.68L3430.62,3172.79L3440.62,3200L3449.6,3223.87L3458.84,3247.83L3469.64,3274.93L3480.64,3301.26L3498.34,3339.61L3506.73,3304.7L3512.01,3278.95L3518.05,3245.7L3521.87,3222.57L3525.27,3200.71L3529.2,3174.18L3532.53,3151.36L3536.07,3128.58L3561.74,3174.12L3611.45,3262.31L3626.67,3289.31L3642,3254.97L3660.89,3212.66L3677.91,3174.53L3705.33,3113.1L3716.85,3087.29L3726.87,3064.84L3733.11,3080.58L3740.33,3100.11L3748.54,3124.33L3756.39,3150.12L3765.82,3185.88L3774.25,3224.9L3780.56,3262.31L3784.62,3294.3L3787.52,3327.05L3789.17,3360.27L3789.51,3394.19L3788.71,3423.66L3786.92,3452.44L3784.5,3478.06L3780.86,3505.55L3778.86,3514.21L3774.78,3508.36L3760.32,3489.86L3749.58,3477.16L3738.87,3465.29L3732.74,3496.4L3726.79,3531.23L3722.29,3562.92L3718.03,3601L3700.76,3608.09L3675.96,3613.37L3672.75,3613.46L3672.18,3599.4L3671.08,3580.34L3669.35,3557.82L3667.11,3535.16L3664.93,3517.59L3663.01,3505.1L3661.56,3497.51L3660.37,3492.62L3658.98,3489.03L3657.26,3488.57L3654.91,3489.8L3650.68,3493.29L3645.41,3498.57L3632.31,3513.42L3615.01,3534.56L3603.45,3549L3591.81,3563.39L3580.97,3574.69L3571.62,3563L3562.23,3549L3552.07,3533.27L3541.59,3516.72L3531.62,3500.75L3524.07,3488.57L3511.48,3507.72L3505.22,3518.21L3504.93,3518.72Z" style="fill:rgb(242,242,242);stroke:rgb(20,12,17);stroke-width:1.25px;"/>
    </g>
</svg>
