<?xml version="1.0" encoding="UTF-8" standalone="no"?>
<!DOCTYPE svg PUBLIC "-//W3C//DTD SVG 1.1//EN" "http://www.w3.org/Graphics/SVG/1.1/DTD/svg11.dtd">
<svg width="100%" height="100%" viewBox="0 0 2481 3508" version="1.1" xmlns="http://www.w3.org/2000/svg" xmlns:xlink="http://www.w3.org/1999/xlink" xml:space="preserve" xmlns:serif="http://www.serif.com/" style="fill-rule:evenodd;clip-rule:evenodd;stroke-linecap:round;stroke-linejoin:round;stroke-miterlimit:1.5;">
    <g id="big" transform="matrix(1,0,0,1,0.341667,0.0625)">
        <path id="body-big" serif:id="body big" transform="matrix(1,0,0,1,1,-1)" d="M768.414,1215.8L773.15,1220.3L807.619,1259.76L1103.36,1273.77L1142.76,1246.05L1146.08,1244.31L1147.45,1247.25L1146.77,1254.89L1143.93,1267.56L1137.39,1293.81L1142.28,1301.12L1151.02,1315.16L1162.68,1337.12L1173.08,1359.5L1182.66,1388.6L1188.51,1414.08L1191.89,1440.29L1195.67,1482.79L1201.54,1540.33L1205.76,1590.11L1209.33,1637.84L1213.36,1698.07L1216.15,1747.23L1217.69,1787.9L1217.68,1814.74L1216.65,1841.73L1215.08,1859.17L1210.25,1884.2L1196.24,1947.14L1185.43,1993.33L1171.16,2044.9L1160.44,2082.4L1149.85,2115.75L1135.59,2155.43L1120.49,2189.18L1108.97,2208.52L1103.64,2215.08L1096.06,2220.7L1086.81,2223.83L1073.71,2227.16L1073.59,2220.4L1072.71,2215.82L1069.34,2213.76L1061.73,2212.54L1044.78,2211.9L1027.95,2212.71L1013.83,2213.87L1007.45,2213.94L1004.58,2215.41L1002.58,2218.58L1001.5,2224.89L1000.96,2234.48L984.035,2234.43L963.06,2233.77L946.106,2232.39L933.417,2231.22L923.326,2230.14L923.7,2222.82L924.072,2216.98L922.443,2214.08L917.725,2212.32L910.648,2210.84L902.695,2210.13L892.9,2209.45L880.582,2209.42L869.534,2209.41L859.459,2209.34L856.26,2209.78L854.058,2212.3L852.798,2215.36L852.071,2218.22L844.34,2216.05L835.588,2213.46L830.812,2211.38L827.871,2208.37L820.001,2193.5L806.407,2162.81L792.347,2127.76L778.252,2090.56L764.033,2052.17L747.368,2004.19L726.755,1940.12L715.103,1900.88L705.771,1866.47L696.682,1827.92L693.636,1812.07L691.216,1794.17L690.607,1781.94L690.793,1761.63L691.529,1735.67L695.004,1687.81L699.657,1630.28L708.017,1561.95L715.533,1506.04L725.696,1445.76L738.389,1384.18L750.531,1338.93L758.528,1315.58L766.55,1296.67L774.273,1281.72L780.393,1273.73L776.645,1259.56L772.38,1241.54L769.357,1229.89L768.182,1221.77L767.637,1218.33L768.414,1215.8Z" style="fill:none;stroke:rgb(29,29,27);stroke-width:0.83px;"/>
        <path id="beak-big" serif:id="beak big" d="M952.558,1525.97L968.841,1527.12L983.572,1529.4L995.405,1532.03L997.212,1533.87L995.912,1538.64L986.667,1557.5L977.645,1574.73L965.135,1596.52L955.504,1613.26L949.318,1621.26L948.746,1613.19L948.998,1598.97L949.789,1573.93L950.566,1545L950.449,1537.31L949.532,1533.25L949.104,1530.01L949.946,1527.24L952.558,1525.97Z" style="fill:none;stroke:rgb(29,29,27);stroke-width:0.83px;"/>
        <path id="big-eye-L" serif:id="big eye L" transform="matrix(1,0,0,1,2,0)" d="M865.453,1369.83L874.54,1371.43L885.971,1374.41L895.806,1378.13L905.035,1382.63L913.773,1388.37L921.914,1395.04L927.841,1400.61L933.847,1407.99L938.932,1415.25L943.751,1422.86L947.442,1431.79L950.612,1441.27L952.542,1450.64L953.979,1460.44L954.236,1470.37L953.253,1481.25L951.403,1490.51L948.132,1501.22L944.824,1509.54L939.999,1517.39L935.676,1524.41L930.545,1530.86L924.54,1537.32L918.095,1543.02L911.448,1548.21L903.716,1552.89L896.528,1556.45L888.824,1559.54L881.693,1561.68L873.764,1563.62L864.023,1564.76L855.078,1565.04L846.55,1564.54L838.138,1563.38L828.876,1561.01L818.816,1557.27L811.103,1553.95L804.194,1550.1L796.696,1544.9L789.696,1538.6L783.29,1531.82L777.696,1525.25L772.827,1518.1L768.912,1510.63L765.484,1503.66L763.232,1496.21L760.975,1488.33L759.545,1480.21L758.661,1471.71L758.878,1462.69L759.743,1453.63L761.179,1445.24L763.261,1437.25L766.42,1428.9L770.143,1420.69L774.473,1414.19L778.617,1407.93L784.072,1401.84L789.665,1396.04L795.936,1390.68L802.621,1385.61L809.864,1381.48L816.657,1377.94L824.395,1374.77L832.488,1372.44L840.697,1370.55L848.102,1369.66L856.401,1369.29L865.453,1369.83Z" style="fill:none;stroke:rgb(29,29,27);stroke-width:0.83px;"/>
        <path id="big-eye-R" serif:id="big eye R" d="M1078.1,1352.35L1086.69,1353.37L1095.02,1355.08L1103.55,1358.05L1110.3,1360.35L1116.53,1363.51L1123.7,1367.88L1130.29,1372.5L1136.43,1377.23L1142.63,1383.48L1148.27,1390.05L1153.35,1397.31L1157.17,1403.78L1160.8,1411.49L1164.24,1420.43L1166.16,1428.74L1167.35,1437.25L1168.14,1447.85L1168.05,1456.31L1167.4,1464.17L1165.93,1471.63L1164.29,1478.19L1161.53,1485.38L1158.52,1492.48L1155.77,1497.48L1151.7,1504.03L1147.37,1510.01L1142.76,1515.64L1137.26,1521.24L1131.64,1526.09L1125.49,1530.62L1118.97,1534.67L1112.56,1537.97L1104.59,1541.32L1096.25,1543.83L1087.81,1545.88L1078.9,1546.98L1069.61,1547.03L1061.39,1546.85L1054.84,1545.81L1047.04,1544.21L1039.69,1542.02L1031.76,1538.94L1024.66,1535.76L1017.75,1531.65L1011.5,1527.21L1005.99,1522.76L1000.86,1517.68L995.379,1511.69L990.698,1505.51L986.303,1498.31L982.577,1491.79L979.39,1484.07L976.892,1476.16L974.488,1466.77L973.651,1458.65L973.105,1450.75L973.097,1442.3L974.21,1433.54L976.108,1425.47L978.16,1417.58L981.229,1410.36L985.016,1402.95L989.177,1395.77L993.764,1389.23L999.408,1382.89L1004.96,1377.06L1011.59,1371.72L1018.49,1366.95L1025.83,1362.93L1033.93,1359.02L1042.83,1355.76L1051.49,1353.88L1058.97,1352.35L1068.2,1351.75L1073.05,1351.71L1078.1,1352.35Z" style="fill:none;stroke:rgb(29,29,27);stroke-width:0.83px;"/>
        <path id="big-foot-L" serif:id="big foot L" d="M851.727,2218.1L850.746,2225.62L850.602,2232.61L850.658,2239.38L851.113,2245.8L851.598,2251.9L852.412,2257.54L853.283,2263.43L854.76,2268.93L856.152,2271.12L859.522,2273.02L864.223,2275.54L869.944,2278.31L875.477,2280.15L881.895,2282.26L887.838,2283.78L893.232,2284.47L897.988,2284.53L902.809,2283.42L905.12,2282.03L906.711,2279.77L909.345,2274.74L911.85,2269.3L913.993,2264.07L915.831,2258.91L917.726,2252.6L919.626,2246.19L921.137,2239.36L922.588,2233.19L923.201,2229.59" style="fill:none;stroke:rgb(29,29,27);stroke-width:0.83px;"/>
        <path id="big-foot-R" serif:id="big foot R" d="M1000.92,2234.2L1001.29,2239L1001.79,2244.26L1002.2,2249.52L1002.89,2253.74L1003.68,2258.26L1004.63,2263.48L1005.52,2268.04L1006.6,2271.68L1007.82,2274.36L1010.05,2275.99L1013.28,2277.87L1017.52,2279.77L1022.13,2281.52L1027.28,2283.24L1032.7,2284.78L1038.52,2285.91L1043.74,2286.71L1048.85,2286.78L1053.14,2286.25L1056.49,2285.08L1059.01,2283.23L1060.59,2280.46L1062.09,2277.04L1063.64,2273.19L1065,2269.26L1066.81,2263.55L1068.22,2257.81L1069.65,2252.87L1070.7,2246.98L1071.57,2241.53L1072.58,2235.91L1073.06,2231.8L1073.48,2227.22" style="fill:none;stroke:rgb(29,29,27);stroke-width:0.83px;"/>
        <path id="big-pupil-L" serif:id="big pupil L" d="M798.946,1481.74L801.61,1482.23L803.48,1483.31L805.15,1484.8L806.477,1486.73L807.25,1489L807.4,1491.71L806.831,1493.84L805.939,1495.65L804.632,1497.19L802.682,1498.51L800.638,1499.22L798.017,1499.54L795.587,1499.09L793.511,1498.06L791.857,1496.6L790.745,1494.9L789.927,1492.93L789.636,1490.75L789.813,1488.61L790.471,1486.78L791.396,1485.26L792.628,1483.98L794.345,1482.74L795.942,1482.05L797.559,1481.72L798.946,1481.74Z" style="fill:none;stroke:rgb(29,29,27);stroke-width:0.83px;"/>
        <path id="big-pupil-R" serif:id="big pupil R" d="M1028.91,1481.78L1031.31,1482.29L1033.44,1483.43L1034.93,1484.75L1036.16,1486.47L1036.91,1488.43L1037.18,1490.5L1036.95,1492.46L1036.34,1494.36L1035.37,1496.01L1034.17,1497.3L1032.85,1498.29L1031.33,1498.96L1029.68,1499.38L1027.9,1499.52L1026.19,1499.26L1024.41,1498.56L1023.03,1497.74L1021.83,1496.67L1020.75,1495.26L1020.03,1493.79L1019.56,1492.17L1019.42,1490.28L1019.64,1488.47L1020.28,1486.66L1021.23,1485.18L1022.35,1483.86L1023.78,1482.96L1025.4,1482.22L1027.23,1481.79L1028.91,1481.78Z" style="fill:none;stroke:rgb(29,29,27);stroke-width:0.83px;"/>
    </g>
    <g id="small" transform="matrix(1,0,0,1,0.341667,0.0625)">
        <path id="small-eye-L" serif:id="small eye L" d="M1609.87,1551.7L1618.98,1552.81L1626.71,1554.31L1634.42,1556.94L1640.54,1559.08L1646.54,1562.56L1652.94,1566.46L1657.9,1570.29L1662.55,1574.97L1667.27,1580.02L1671.9,1585.66L1675.47,1591.24L1678.4,1597.3L1680.87,1602.34L1682.47,1608.45L1684.18,1615.6L1685.56,1623.61L1685.63,1633.28L1684.78,1641.74L1683.12,1650.21L1680.84,1657.87L1678.02,1664.34L1674.96,1669.58L1670.59,1676.62L1666.01,1682.29L1661.24,1687.36L1655.7,1691.82L1650.51,1695.86L1643.96,1699.76L1637.16,1702.78L1629.96,1705.18L1622.31,1707.16L1614.49,1707.99L1607.15,1708.48L1599.88,1708.04L1592.62,1707.1L1585.5,1705.38L1579.18,1703.31L1572.12,1700.09L1565.11,1696.26L1559.72,1692.31L1553.52,1687.04L1548.07,1681.48L1542.93,1674.88L1538.78,1668.28L1534.89,1659.78L1532.01,1652.04L1530.25,1644.48L1529.26,1637.33L1528.98,1629.8L1529.3,1621.88L1530.51,1614.87L1532.57,1606.59L1535.57,1599.04L1539.26,1591.41L1543.32,1585.11L1548.15,1578.78L1553.64,1573.2L1560.21,1567.7L1566.36,1563.59L1571.28,1560.56L1577.49,1557.87L1582.79,1555.86L1588.96,1554.17L1595.43,1552.84L1601.34,1552.16L1605.99,1551.89L1609.87,1551.7Z" style="fill:none;stroke:rgb(29,29,27);stroke-width:0.83px;"/>
        <path id="small-eye-R" serif:id="small eye R" d="M1780.97,1537.76L1791.88,1538.68L1803.36,1541.66L1814.04,1545.82L1822.49,1551.07L1830.34,1556.94L1837.64,1563.82L1843.02,1571.1L1847.91,1578.45L1851.73,1586.68L1854.6,1595.34L1856.54,1604.09L1857.49,1613.54L1857.22,1620.7L1856.25,1628.98L1854.54,1636.42L1852.12,1644.12L1849.34,1650.6L1845.29,1657.2L1840.97,1663.97L1835.52,1669.95L1829.86,1675.34L1823.12,1680.65L1816.79,1684.7L1809.9,1687.94L1803.19,1690.63L1794.73,1692.63L1786.83,1693.85L1779.58,1694.12L1770.96,1693.82L1763.75,1692.61L1756.33,1690.86L1749.07,1688.47L1741.8,1684.82L1734.98,1680.4L1729.04,1675.91L1723.1,1670.55L1717.36,1664.17L1713.22,1658.19L1709.78,1652.44L1707.09,1646.53L1704.66,1640.61L1702.78,1634.25L1701.66,1627.35L1700.8,1619.92L1700.76,1612.91L1701.56,1605.57L1702.69,1598.76L1704.52,1591.66L1707.03,1585.33L1709.99,1578.71L1713.14,1573.15L1717.09,1567.55L1721.82,1562.48L1728.55,1556.22L1735.16,1550.93L1742.57,1546.78L1750.14,1542.93L1757.97,1540.47L1764.86,1538.71L1773.28,1537.82L1780.97,1537.76Z" style="fill:none;stroke:rgb(29,29,27);stroke-width:0.83px;"/>
        <path id="small-pupil-L" serif:id="small pupil L" d="M1607.51,1623.07L1610.16,1623.62L1612.06,1624.98L1613.59,1626.94L1614.4,1629.63L1614.14,1631.94L1613.12,1634.43L1611.15,1636.02L1609.18,1637.1L1606.63,1637.34L1604.01,1636.6L1601.92,1635L1600.53,1632.61L1600.17,1629.74L1600.8,1627.08L1602.3,1625.16L1604.33,1623.72L1607.51,1623.07Z" style="fill:none;stroke:rgb(29,29,27);stroke-width:0.83px;"/>
        <path id="small-pupil-R" serif:id="small pupil R" d="M1742.43,1592.21L1744.59,1592.67L1746.55,1593.87L1748.02,1595.49L1748.9,1597.44L1749.3,1599.42L1748.92,1601.59L1748.08,1603.22L1746.98,1604.61L1745.38,1605.75L1743.7,1606.36L1741.37,1606.5L1738.91,1605.73L1737.31,1604.63L1736.12,1603.14L1735.24,1601.52L1735,1599.62L1735.18,1597.72L1735.88,1595.95L1736.89,1594.53L1738.14,1593.41L1739.63,1592.66L1741.11,1592.29L1742.43,1592.21Z" style="fill:none;stroke:rgb(29,29,27);stroke-width:0.83px;"/>
        <path id="small-beak" serif:id="small beak" d="M1684.8,1677.17L1692.38,1677.72L1700.76,1678.59L1708.61,1679.63L1715.58,1681.02L1719.55,1682.51L1720.25,1684.3L1718.26,1689.24L1707.43,1710.82L1700.32,1723.85L1691.14,1740.07L1684.81,1750.12L1681.58,1753.5L1682.52,1686.58L1681.76,1682.41L1681.45,1679.82L1682.81,1677.6L1684.8,1677.17Z" style="fill:none;stroke:rgb(29,29,27);stroke-width:0.83px;"/>
        <path id="small-body" serif:id="small body" d="M1437,1428.5L1444.35,1434.24L1456.36,1445.01L1466.66,1454.26L1477.1,1463.99L1780.98,1475.26L1801.86,1463.12L1824.29,1451.72L1825.8,1451.81L1826.6,1453.26L1826.34,1456.12L1824.85,1463.52L1822.23,1473.1L1818.97,1482.98L1815.96,1491.2L1823.87,1500.04L1831.74,1510.04L1838.18,1519.25L1845.33,1530.65L1851.74,1542.34L1857.53,1554.4L1862.23,1566.11L1866.38,1578.77L1869.18,1590.12L1870.83,1599.74L1872.04,1608.14L1873.36,1618.64L1874.72,1629.59L1876,1639.85L1884.57,1712.94L1888.75,1753.5L1892.5,1791.36L1895.26,1824.52L1896.85,1848.49L1898.09,1870.34L1898.8,1892.56L1898.9,1911.98L1898.07,1929.66L1897.16,1937.94L1896.05,1943.82L1892.39,1958.67L1887.17,1977.83L1866.13,2048.83L1854.33,2083.68L1842.28,2116.72L1829.28,2148.99L1817.79,2175.03L1807.58,2194.84L1799.56,2207.7L1794.52,2215.2L1789.92,2221.08L1784.89,2225.91L1778.04,2231.67L1770.41,2234.95L1763.3,2236.64L1756.43,2238.27L1750.52,2239.57L1750.64,2235.54L1750.45,2231.8L1749.86,2230.15L1748.33,2229.15L1743.97,2227.85L1738.4,2227.24L1730.26,2226.8L1719.7,2226.9L1708.36,2227.18L1696.99,2227.72L1682.66,2228.5L1680.85,2228.94L1678.97,2230.21L1677.58,2232.39L1676.78,2235.19L1676.18,2237.91L1675.98,2241.68L1675.95,2245.23L1649.9,2244.7L1623.02,2243.5L1595.81,2241.44L1596.52,2236.92L1596.78,2232.05L1596.51,2230.24L1595.35,2228.92L1591.99,2227.48L1583.77,2225.92L1573.47,2225.22L1549.13,2224.82L1528.91,2224.86L1527.1,2225.37L1525.29,2226.67L1524.11,2228.39L1522.74,2231.97L1510.32,2229.24L1501.14,2226.37L1498.89,2224.79L1493.74,2218.21L1480.91,2196.95L1462.68,2162.37L1440.25,2115.95L1414.74,2059.04L1392.93,2006.26L1382.21,1978.88L1372.03,1949.38L1363.6,1921.46L1359.36,1902.78L1357.61,1892.95L1356.8,1884.31L1356.79,1871.41L1357.2,1856.51L1358.3,1839.17L1360.99,1806.89L1365.22,1769.41L1369.49,1737.35L1374.85,1703.45L1378.71,1680.93L1383.31,1656.38L1388.69,1630.74L1395.47,1600.53L1402.82,1574.89L1410.56,1549.26L1418.07,1528.4L1423.26,1515.23L1429.2,1502.85L1434.88,1492.79L1440.19,1484.97L1444.08,1479.93L1446.91,1476.94L1449.15,1474.9L1441.73,1452.77L1438.49,1441.44L1436.63,1434.71L1436.09,1431.93L1435.97,1429.98L1436.07,1428.61L1437,1428.5Z" style="fill:none;stroke:rgb(29,29,27);stroke-width:0.83px;"/>
        <path id="small-foot-L" serif:id="small foot L" d="M1522.74,2231.97L1521.49,2240.16L1521.65,2249.36L1522.49,2259.82L1524.05,2267.83L1526.26,2273.13L1528.37,2274.66L1535.26,2277.58L1547.09,2281.46L1558.83,2284.27L1566.41,2285.26L1572.75,2284.84L1577.5,2283.11L1580.49,2280.08L1584.84,2272.26L1590.08,2260.67L1593.41,2250.15L1595.81,2241.44L1596.52,2236.92L1596.78,2232.05L1596.51,2230.24L1595.35,2228.92L1591.99,2227.48L1583.77,2225.92L1573.47,2225.22L1549.13,2224.82L1528.91,2224.86L1527.1,2225.37L1525.29,2226.67L1524.11,2228.39L1522.74,2231.97Z" style="fill:none;stroke:rgb(29,29,27);stroke-width:0.83px;"/>
        <path id="small-foot-L-lower-part" serif:id="small foot L lower part" d="M1522.74,2231.97L1521.49,2240.16L1521.65,2249.36L1522.49,2259.82L1524.05,2267.83L1526.26,2273.13L1528.37,2274.66L1535.26,2277.58L1547.09,2281.46L1558.83,2284.27L1566.41,2285.26L1572.75,2284.84L1577.5,2283.11L1580.49,2280.08L1584.84,2272.26L1590.08,2260.67L1593.41,2250.15L1595.81,2241.44" style="fill:none;stroke:rgb(29,29,27);stroke-width:0.83px;"/>
        <path id="small-foot-R" serif:id="small foot R" d="M1675.95,2245.23L1676.07,2249.62L1676.89,2255.12L1678.08,2261.84L1679.54,2267.55L1681.13,2272.84L1682.27,2275.62L1683.71,2277.46L1685.69,2278.44L1688.85,2279.64L1694.61,2281.56L1700.77,2283.43L1707.78,2285.14L1714.01,2286.22L1720.18,2286.88L1725.13,2287.04L1730.03,2286.47L1733.18,2285.53L1735.4,2284.3L1736.95,2282.67L1738.47,2279.74L1740.79,2275.61L1742.85,2270.27L1745.48,2262.88L1748.05,2254.1L1749.68,2245.76L1750.52,2239.57L1750.64,2235.54L1750.45,2231.8L1749.86,2230.15L1748.33,2229.15L1743.97,2227.85L1738.4,2227.24L1730.26,2226.8L1719.7,2226.9L1708.36,2227.18L1696.99,2227.72L1682.66,2228.5L1680.85,2228.94L1678.97,2230.21L1677.58,2232.39L1676.78,2235.19L1676.18,2237.91L1675.98,2241.68L1675.95,2245.23Z" style="fill:none;stroke:rgb(29,29,27);stroke-width:0.83px;"/>
        <path id="small-foot-R-lower-part" serif:id="small foot R lower part" d="M1675.95,2245.23L1676.07,2249.62L1676.89,2255.12L1678.08,2261.84L1679.54,2267.55L1681.13,2272.84L1682.27,2275.62L1683.71,2277.46L1685.69,2278.44L1688.85,2279.64L1694.61,2281.56L1700.77,2283.43L1707.78,2285.14L1714.01,2286.22L1720.18,2286.88L1725.13,2287.04L1730.03,2286.47L1733.18,2285.53L1735.4,2284.3L1736.95,2282.67L1738.47,2279.74L1740.79,2275.61L1742.85,2270.27L1745.48,2262.88L1748.05,2254.1L1749.68,2245.76L1750.52,2239.57" style="fill:none;stroke:rgb(29,29,27);stroke-width:0.83px;"/>
    </g>
    <g id="branch" transform="matrix(1,0,0,1,0.341667,0.0625)">
        <path id="branch-1" serif:id="branch 1" d="M850.926,2225.56L742.74,2229.44L674.943,2232.21L580.45,2237.07L510.113,2241.89L449.046,2246.76L404.893,2251.3L370.947,2256.44L362.127,2258.43L355.966,2260.8L353.704,2263.78L351.873,2266.96L350.45,2270.49L349.71,2273.69L349.491,2276.69L349.906,2280.03L351.255,2283.64L352.732,2285.52L354.062,2286.26L355.877,2286.63L389.388,2282.83L431.639,2279.31L477.141,2276.22L545.553,2272.64L641.98,2269.01L718.814,2267L797.512,2265.48L853.595,2264.58" style="fill:none;stroke:rgb(29,29,27);stroke-width:0.83px;"/>
        <path id="branch-2" serif:id="branch 2" d="M914.077,2263.95L1004.51,2263.35" style="fill:none;stroke:rgb(29,29,27);stroke-width:0.83px;"/>
        <path id="branch-3" serif:id="branch 3" d="M1066.89,2263.19L1274.43,2263.87L1523.9,2267.01" style="fill:none;stroke:rgb(29,29,27);stroke-width:0.83px;"/>
        <path id="branch-4" serif:id="branch 4" d="M1587.1,2268.17L1680.65,2270.43" style="fill:none;stroke:rgb(29,29,27);stroke-width:0.83px;"/>
        <path id="branch-5-addition" serif:id="branch 5 addition" d="M1742.28,2271.99L1849.03,2275.72L1919.77,2278.68L1979.14,2281.6L2040.92,2286.52L2084.51,2290.32L2106.74,2292.05L2116.01,2293.45L2120.36,2294.59L2123.07,2294.42L2125.5,2293.12L2127.92,2290.95L2130.98,2285.44L2132.93,2278.26L2133.78,2271.24L2133.82,2265.22L2133.37,2260.11L2131.97,2257.33L2130.44,2256.7L2117.31,2255.01L2061.66,2249.2L2018.3,2243.93L2008.02,2195.47L2004.84,2190.79L2001.13,2189.24L1997.66,2189.74L1993.89,2190.78L1987,2193.43L1980.66,2196.94L1975.6,2200.85L1973.59,2204.21L1974.07,2205.9L1975.24,2207.46L1975.25,2207.46L1977.7,2240.91L1869.76,2236.18L1810.74,2233.43L1790.81,2232.45L1777.72,2231.66" style="fill:none;stroke:rgb(29,29,27);stroke-width:0.83px;"/>
        <path id="branch-6" serif:id="branch 6" d="M1497.02,2222.56L1436.15,2221.59L1384.16,2221.09L1338.58,2220.53L1305.11,2220.28L1268.62,2220.07L1227.53,2219.97L1190.92,2220.09L1152.35,2220.21L1121.25,2220.46L1106.76,2220.6L1095.58,2220.58" style="fill:none;stroke:rgb(29,29,27);stroke-width:0.83px;"/>
    </g>
</svg>
