<?xml version="1.0" encoding="UTF-8" standalone="no"?>
<!DOCTYPE svg PUBLIC "-//W3C//DTD SVG 1.1//EN" "http://www.w3.org/Graphics/SVG/1.1/DTD/svg11.dtd">
<svg width="100%" height="100%" viewBox="0 0 1191 842" version="1.1" xmlns="http://www.w3.org/2000/svg" xmlns:xlink="http://www.w3.org/1999/xlink" xml:space="preserve" xmlns:serif="http://www.serif.com/" style="fill-rule:evenodd;clip-rule:evenodd;stroke-miterlimit:10;">
    <path id="outline" d="M634.87,376.04L634.43,376.21L634.18,376.69L634.2,377.64L634.54,378.65L634.97,379.5L635.69,380.6L636.2,381.22L637.12,382.12L638.37,382.99L639.12,383.36L640.09,383.69L641.32,383.91L642.8,383.95L687.86,383.92L688.79,383.92L689.75,384.19L690.31,384.72L690.62,385.61L690.52,386.61L690.21,387.98L689.95,388.75L689.54,389.77L688.96,390.84L688.43,391.6L687.98,392.15L686.89,393.22L686.43,393.58L685.19,394.38L684.76,394.61L683.83,395.02L682.57,395.43L681.1,395.75L679.68,395.91L678.52,395.96L641.75,395.99L639.45,396.09L638.12,396.24L636.83,396.48L635.54,396.83L634.27,397.31L632.88,398.05L631.97,398.7L631.09,399.51L630.31,400.44L629.71,401.35L628.74,403.4L628.12,405.46L627.79,407.24L627.64,408.45L627.5,410.26L627.45,411.69L627.48,413.92L627.58,415.49L627.77,417.17L628.09,419.1L628.44,420.67L628.87,422.25L629.23,423.37L629.6,424.38L630.04,425.48L630.52,426.56L630.99,427.52L631.59,428.64L632.19,429.64L632.91,430.75L633.53,431.62L634.04,432.3L634.82,433.27L635.7,434.26L636.39,434.99L637.08,435.67L638,436.52L638.79,437.2L639.55,437.81L640.99,438.87L641.72,439.36L642.53,439.87L643.59,440.49L644.63,441.04L645.3,441.37L646.27,441.81L647.32,442.25L648.41,442.65L650.17,443.2L651.9,443.62L653.42,443.89L654.59,444.03L655.92,444.12L656.78,444.09L657.78,443.99L658.23,442.75L658.72,441.33L659.18,439.95L659.65,438.6L660.1,437.37L660.44,436.5L661.05,435.12L661.74,433.79L662.09,433.18L662.87,431.9L663.74,430.58L664.64,429.33L666.2,427.44L667.26,426.32L668.37,425.27L668.87,424.84L669.82,424.1L671.13,423.28L671.59,423.06L672.88,422.69L673.56,422.68L674.07,422.78L674.64,423.03L675.15,423.41L675.71,424.03L676.12,424.65L676.5,425.4L677.27,427.58L677.69,429.18L678.16,431.17L678.57,433.17L678.98,435.44L679.27,437.31L679.5,438.95L679.67,440.31L679.79,441.43L679.99,443.46L680.1,444.71L680.2,446.05L680.32,447.15L680.66,448.69L680.97,449.53L681.34,450.3L682.08,451.45L682.73,452.25L683.55,453.12L684.55,454.14L685.67,455.29L686.16,455.79L687.05,456.72L688.37,458.13L689.43,459.3L690.17,460.13L690.69,460.73L691.42,461.59L692.19,462.53L692.99,463.54L693.63,464.38L694.2,465.17L695.2,466.62L696.18,468.15L696.69,469.04L697.39,470.64L697.71,472.14L697.7,472.8L697.52,473.57L697.03,474.39L696.62,474.79L695.9,475.26L694.39,475.81L693.08,476.05L692.13,476.15L691.18,476.2L689.86,476.2L688.63,476.12L686.55,475.83L684.93,475.47L682.39,474.67L680.63,473.96L678.45,472.93L676.86,472.08L675.8,471.48L674.26,470.56L673.03,469.77L672.1,469.21L671.41,468.85L670.36,468.35L669.22,467.88L667.34,467.25L666.06,466.95L664.12,466.75L659.78,466.75L655.55,466.71L649,466.57L643.66,466.39L639.55,466.19L635.38,465.93L631.55,465.63L628.59,465.34L624.19,464.78L621.29,464.28L616.73,463.26L613.15,462.29L610.7,461.54L608.36,460.75L605.21,459.58L602.49,458.46L598.32,456.54L595.64,455.17L592.47,453.39L589.34,451.47L585.37,448.77L580.8,445.26L576.9,441.87L574.24,439.32L570.86,435.77L566.78,430.94L564.14,427.43L560.93,422.64L558.02,417.68L555.79,413.34L554.2,409.86L553.03,407.05L551.36,402.5L549.51,396.37L547.84,388.9L547,383.31L546.44,376.65L546.35,370.38L546.78,363.08L547.56,357.22L548.53,352.25L549.82,347.21L551.21,342.79L552.71,338.76L554.48,334.63L556.22,331.04L557.79,328.11L559.18,325.72L561.65,321.84L564.35,318.04L566.24,315.59L570.52,310.59L574.32,306.7L578.1,303.27L582.11,300.05L587.78,296.14L595.28,291.97L601.42,289.27L608.47,286.86L614.23,285.37L619,284.43L625.87,283.51L634.65,282.99L682.35,282.96L684.77,283.04L687.51,283.28L689.94,283.63L692.43,284.15L695.51,285.05L697.67,285.88L699.75,286.86L701.76,288.01L703.8,289.42L704.84,290.25L706.08,291.36L707.39,292.7L708.61,294.13L709.77,295.69L710.97,297.58L712.07,299.64L713.06,301.86L713.86,304.05L714.41,305.85L714.92,307.82L715.42,310.28L715.83,313L716.04,314.93L716.19,316.86L716.29,319.05L716.32,320.72L715.76,363.07L715.5,366.18L715.06,368.12L714.38,369.72L713.21,371.51L712.22,372.6L711.15,373.52L709.65,374.5L708.47,375.06L706.53,375.65L704.5,375.86L703.2,375.86L636.6,376L634.87,376.04Z" style="fill:none;fill-rule:nonzero;stroke:black;stroke-width:1px;"/>
    <path id="eye" d="M628.3,335.76L628.16,337.17L627.75,338.5L627.1,339.69L626.24,340.73L625.2,341.59L624,342.24L622.68,342.65L621.26,342.79L619.84,342.65L618.52,342.24L617.33,341.59L616.28,340.73L615.42,339.69L614.78,338.5L614.36,337.17L614.22,335.76L614.36,334.34L614.78,333.02L615.42,331.82L616.28,330.78L617.33,329.92L618.52,329.27L619.84,328.86L621.26,328.72L622.68,328.86L624,329.27L625.2,329.92L626.24,330.78L627.1,331.82L627.75,333.02L628.16,334.34L628.3,335.76Z" style="fill:none;fill-rule:nonzero;stroke:black;stroke-width:1px;"/>
</svg>
